<svg fill="none" height="43" width="107" xmlns="http://www.w3.org/2000/svg"><path d="M61.928 35.705c2.05 0 3.732-.959 4.912-2.743l.221 2.374h4.026V9.895h-4.35v9.188c-1.092-1.652-2.714-2.522-4.617-2.522-4.203 0-7.138 3.555-7.138 9.705 0 6.061 2.847 9.439 6.947 9.439zm26.769-1.608v-3.554c-1.357.914-3.628 1.725-5.752 1.725-3.186 0-4.395-1.504-4.572-4.572h10.5v-2.315c0-6.4-2.816-8.82-7.167-8.82-5.31 0-7.831 4.056-7.831 9.631 0 6.4 3.141 9.513 8.716 9.513 2.773 0 4.823-.738 6.106-1.608zm-46.9-11.976c.811-.988 2.08-1.828 3.658-1.828 1.533 0 2.227.663 2.227 2.05v12.993h4.35V21.9c0-3.657-1.46-5.265-5.014-5.265-2.596 0-4.13.959-5.015 1.829h-.22l-.104-1.534H37.43v18.406h4.351V22.122zm-7.905.664c0-4.469-2.272-6.15-6.888-6.15-2.861 0-5.162 1.21-6.474 2.153v3.776c1.386-1.136 3.51-2.448 5.973-2.448 2.08 0 3.038.737 3.038 2.713v1.165h-.693c-6.666 0-9.631 2.154-9.631 6.003 0 3.554 2.271 5.604 5.634 5.604 2.566 0 3.658-.84 4.498-1.725h.177c.03.472.177 1.091.325 1.46h4.247a46.149 46.149 0 01-.221-4.498v-8.053zm68.197 12.551H107l-6.003-9.483 5.192-8.923h-4.351l-3.142 5.56-3.51-5.56H90.26l5.56 8.82-5.781 9.586h4.425l3.701-6.224zM63.212 19.998c2.345 0 3.51 1.873 3.51 6.106 0 4.277-1.24 6.15-3.702 6.15-2.375 0-3.555-1.83-3.555-6.003.015-4.35 1.254-6.253 3.747-6.253zm18.42 0c2.154 0 2.817 1.799 2.817 4.1v.369h-6.076c.103-2.935 1.165-4.47 3.26-4.47zM29.541 30.94c-.546.811-1.578 1.46-3.112 1.46-1.829 0-2.743-1.062-2.743-2.67 0-2.123 1.504-2.86 5.235-2.86h.62z" fill="#000"/><g fill="#fc3f1d"><path d="M12.772 31.015v4.321H8.348V28.05L0 9.895h4.616l6.504 14.203c1.254 2.714 1.652 3.657 1.652 6.917zM21.09 9.895l-5.427 12.3h-4.498l5.427-12.3z"/></g></svg>