<?xml version="1.0" encoding="UTF-8"?>
<svg width="151px" height="23px" viewBox="0 0 151 23" version="1.1" xmlns="http://www.w3.org/2000/svg" xmlns:xlink="http://www.w3.org/1999/xlink">
    <defs>
        <polygon id="path-1" points="0 0 15.4361 0 15.4361 17.6138 0 17.6138"></polygon>
        <polygon id="path-3" points="0 0 15.6076 0 15.6076 17.2094 0 17.2094"></polygon>
        <polygon id="path-5" points="0 0 15.4361 0 15.4361 17.6138 0 17.6138"></polygon>
    </defs>
    <g id="Page-1" stroke="none" stroke-width="1" fill="none" fill-rule="evenodd">
        <g id="logo-dark">
            <polygon id="Fill-1" fill="#00BCE9" points="0 4 5 4 5 0 0 0"></polygon>
            <polygon id="Fill-2" fill="#01114A" points="0 10 5 10 5 6 0 6"></polygon>
            <polygon id="Fill-3" fill="#01114A" points="0 16 5 16 5 12 0 12"></polygon>
            <polygon id="Fill-4" fill="#01114A" points="0 22 5 22 5 18 0 18"></polygon>
            <path d="M21.3684,7.341913 C20.9037,6.726703 20.262,6.240459 19.461,5.896056 C18.6729,5.557726 17.66,5.386253 16.45053,5.386253 C15.48061,5.386253 14.52006,5.612374 13.59555,6.057571 C12.92114,6.382544 12.33251,6.850813 11.83662,7.454123 L11.83662,5.821735 L7,5.821735 L7,22.595453 L12.05237,22.595453 L12.05237,13.819753 C12.05237,12.265083 12.2984,11.146863 12.78396,10.496433 C13.25318,9.866403 14.00975,9.560623 15.09643,9.560623 C16.02575,9.560623 16.64657,9.828753 16.99351,10.380333 C17.3661,10.974423 17.5555,11.911693 17.5555,13.166403 L17.5555,22.595453 L22.6076,22.595453 L22.6076,12.357863 C22.6076,11.345053 22.517,10.404623 22.3385,9.562803 C22.1545,8.697913 21.828,7.951053 21.3684,7.341913" id="Fill-5" fill="#01114A"></path>
            <polygon id="Clip-8" points="24.052485 5.3862042 39.488585 5.3862042 39.488585 23.0000042 24.052485 23.0000042"></polygon>
            <g id="Clipped" transform="translate(24.052485, 5.386204)">
                <mask id="mask-2" fill="white">
                    <use xlink:href="#path-1"></use>
                </mask>
                <g id="path_1"></g>
                <path d="M13.7242,8.26227 C13.2267,7.90183 12.6532,7.60892 12.0191,7.3913 C11.4017,7.18024 10.7633,6.99905 10.1254,6.85308 C9.49641,6.70517 8.8828,6.56867 8.30137,6.44699 C7.72307,6.32627 7.20292,6.18832 6.75532,6.03749 C6.33751,5.89686 5.99779,5.71446 5.74624,5.49611 C5.53361,5.31225 5.43462,5.08929 5.43462,4.79371 C5.43462,4.5433 5.48892,4.35652 5.60064,4.22221 C5.73062,4.06556 5.88631,3.94922 6.07611,3.86542 C6.27841,3.77629 6.50905,3.71727 6.76108,3.69006 C7.0345,3.66043 7.29157,3.64537 7.52486,3.64537 C8.24419,3.64537 8.87487,3.78406 9.39863,4.05754 C9.86473,4.30188 10.1168,4.77476 10.1696,5.5034 L10.1927,5.82327 L15.0351,5.82327 L15.0041,5.44924 C14.9171,4.40121 14.6454,3.51568 14.1958,2.81667 C13.7492,2.12325 13.1796,1.5588 12.5032,1.13959 C11.8358,0.726937 11.0687,0.42941 10.2234,0.255752 C9.39406,0.0859792 8.52746,0 7.64763,0 C6.76853,0 5.89808,0.0806359 5.0615,0.239479 C4.20595,0.401479 3.42439,0.687348 2.73749,1.08883 C2.03426,1.50026 1.46052,2.0686 1.03239,2.77878 C0.601124,3.49479 0.38249,4.41312 0.38249,5.50923 C0.38249,6.27551 0.543702,6.93663 0.861323,7.47437 C1.1727,8.0036 1.59026,8.4488 2.10201,8.79708 C2.59694,9.13493 3.16924,9.41084 3.80376,9.61729 C4.41593,9.81718 5.05237,9.99254 5.70011,10.1395 C7.23223,10.4659 8.4424,10.796 9.297,11.1207 C10.3839,11.5346 10.3839,12.1041 10.3839,12.2911 C10.3839,12.6142 10.3145,12.8687 10.1713,13.0696 C10.0151,13.2889 9.82509,13.4596 9.59011,13.592 C9.34409,13.73 9.06539,13.8332 8.76123,13.898 C8.44961,13.9653 8.14737,13.9996 7.8629,13.9996 C7.46119,13.9996 7.07053,13.9507 6.70174,13.8546 C6.34304,13.7618 6.02325,13.6173 5.75056,13.4242 C5.48484,13.2362 5.26524,12.9909 5.09682,12.6948 L5.09634,12.6941 C4.93296,12.4075 4.84984,12.0522 4.84984,11.6376 L4.84984,11.2932 L0,11.2932 L0.0134544,11.6509 C0.0562202,12.7852 0.3169,13.7477 0.787804,14.5113 C1.25414,15.2681 1.86031,15.8862 2.58877,16.3475 C3.3069,16.8026 4.13627,17.1322 5.05405,17.326 C5.95526,17.5169 6.88986,17.6138 7.83239,17.6138 C8.75041,17.6138 9.66844,17.5225 10.561,17.3425 C11.4694,17.1592 12.2906,16.8344 13.001,16.3776 C13.7197,15.9151 14.3102,15.2956 14.7576,14.5361 C15.2078,13.7691 15.4361,12.8148 15.4361,11.7 C15.4361,10.8977 15.2758,10.2068 14.9601,9.64643 C14.6497,9.09777 14.2338,8.63193 13.7242,8.26227" id="Fill-7" fill="#01114A" mask="url(#mask-2)"></path>
            </g>
            <path d="M47.426887,1 L42.374757,1 L42.374757,5.82212 L39.728317,5.82212 L39.728317,9.46701 L42.374757,9.46701 L42.374757,18.6104 C42.374757,19.4746 42.523227,20.1894 42.816107,20.7347 C43.111617,21.2872 43.522697,21.72 44.037817,22.02 C44.534187,22.31 45.112727,22.5079 45.757337,22.6073 C46.376237,22.7025 47.040787,22.751 47.732007,22.751 C48.155827,22.751 48.606067,22.7406 49.070727,22.7195 C49.533697,22.6979 49.961317,22.6549 50.342217,22.5907 L50.627617,22.5424 L50.627617,18.4072 L50.218917,18.4907 C50.026917,18.5298 49.822217,18.5592 49.609147,18.5781 C49.394837,18.5978 49.167067,18.6078 48.932097,18.6078 C48.091437,18.6078 47.426887,18.3367 47.426887,16.9645 L47.426887,9.46701 L50.627617,9.46701 L50.627617,5.82212 L47.426887,5.82212 L47.426887,1 Z" id="Fill-10" fill="#01114A"></path>
            <polygon id="Clip-13" points="94.02714 5.790647 109.63474 5.790647 109.63474 23.000047 94.02714 23.000047"></polygon>
            <g id="Clipped" transform="translate(94.027140, 5.790647)">
                <mask id="mask-4" fill="white">
                    <use xlink:href="#path-3"></use>
                </mask>
                <g id="path_2"></g>
                <path d="M1.23925,15.2538 C1.70415,15.8688 2.34563,16.3552 3.14665,16.6996 C3.93494,17.0377 4.94786,17.2094 6.15732,17.2094 C7.12724,17.2094 8.08754,16.9831 9.0123,16.5379 C9.68646,16.2129 10.2751,15.7449 10.771,15.1413 L10.771,16.774 L15.6076,16.774 L15.6076,0 L10.5555,0 L10.5555,8.77595 C10.5555,10.3304 10.3094,11.4486 9.82364,12.0993 C9.35442,12.7291 8.59809,13.0351 7.51117,13.0351 C6.58185,13.0351 5.96151,12.7669 5.61434,12.2151 C5.24146,11.621 5.05213,10.684 5.05213,9.42906 L5.05213,0 L0,0 L0,10.2378 C0,11.2507 0.0908173,12.1908 0.269329,13.0327 C0.453125,13.8975 0.779635,14.6444 1.23925,15.2538" id="Fill-12" fill="#01114A" mask="url(#mask-4)"></path>
            </g>
            <polygon id="Clip-16" points="111.079506 5.3862042 126.515606 5.3862042 126.515606 23.0000042 111.079506 23.0000042"></polygon>
            <g id="Clipped" transform="translate(111.079506, 5.386204)">
                <mask id="mask-6" fill="white">
                    <use xlink:href="#path-5"></use>
                </mask>
                <g id="path_1"></g>
                <path d="M13.7242,8.26227 C13.2269,7.90183 12.6532,7.60892 12.0189,7.3913 C11.4014,7.18024 10.7638,6.99905 10.1254,6.85308 C9.49617,6.70517 8.8828,6.56867 8.30137,6.44699 C7.72307,6.32627 7.20292,6.18832 6.75532,6.03749 C6.33751,5.89686 5.99803,5.71446 5.74624,5.49611 C5.53337,5.31225 5.43462,5.08929 5.43462,4.79371 C5.43462,4.5433 5.48892,4.35652 5.60088,4.22221 C5.73062,4.06556 5.88631,3.94922 6.07611,3.86542 C6.27841,3.77629 6.50905,3.71727 6.76108,3.69006 C7.03426,3.66043 7.29133,3.64537 7.52438,3.64537 C8.24419,3.64537 8.87463,3.78406 9.39863,4.05754 C9.86473,4.30188 10.1165,4.77476 10.1696,5.5034 L10.1927,5.82327 L15.0348,5.82327 L15.0041,5.44924 C14.9171,4.40121 14.6454,3.51568 14.1961,2.81667 C13.7492,2.12325 13.1793,1.5588 12.5032,1.13959 C11.8358,0.726937 11.0687,0.42941 10.2234,0.255752 C9.3943,0.0859792 8.52746,0 7.64763,0 C6.76829,0 5.89832,0.0806359 5.06126,0.239479 C4.20619,0.401479 3.42439,0.687348 2.73749,1.08883 C2.03426,1.50026 1.46052,2.0686 1.03263,2.77878 C0.601124,3.49479 0.38249,4.41312 0.38249,5.50923 C0.38249,6.27551 0.543943,6.93663 0.861323,7.47437 C1.1727,8.0036 1.59002,8.4488 2.10201,8.79708 C2.59694,9.13493 3.16924,9.41084 3.80376,9.61729 C4.41593,9.81718 5.05237,9.99254 5.70035,10.1395 C7.23223,10.4659 8.4424,10.796 9.29676,11.1207 C10.3839,11.5346 10.3839,12.1041 10.3839,12.2911 C10.3839,12.6142 10.3145,12.8687 10.1713,13.0696 C10.0151,13.2889 9.82509,13.4596 9.58987,13.592 C9.34409,13.73 9.06539,13.8332 8.76123,13.898 C8.44961,13.9653 8.14737,13.9996 7.8629,13.9996 C7.46143,13.9996 7.07053,13.9507 6.70174,13.8546 C6.34304,13.7618 6.02325,13.6173 5.75056,13.4242 C5.48484,13.2362 5.265,12.9909 5.09682,12.6948 L5.09658,12.6941 C4.93296,12.4075 4.84984,12.0522 4.84984,11.6376 L4.84984,11.2932 L0,11.2932 L0.0136947,11.6509 C0.05598,12.7852 0.3169,13.7477 0.787804,14.5113 C1.25438,15.2681 1.86007,15.8862 2.58877,16.3475 C3.3069,16.8026 4.13627,17.1322 5.0543,17.326 C5.95526,17.5169 6.88986,17.6138 7.83263,17.6138 C8.75066,17.6138 9.66844,17.5225 10.561,17.3425 C11.4692,17.1592 12.2904,16.8344 13.0008,16.3776 C13.7197,15.9151 14.3102,15.2956 14.7576,14.5361 C15.2078,13.7691 15.4361,12.8148 15.4361,11.7 C15.4361,10.8977 15.276,10.2068 14.9606,9.64643 C14.6497,9.09777 14.2338,8.63193 13.7242,8.26227" id="Fill-15" fill="#01114A" mask="url(#mask-6)"></path>
            </g>
            <path d="M134.45391,1 L129.40178,1 L129.40178,5.82212 L126.75534,5.82212 L126.75534,9.46701 L129.40178,9.46701 L129.40178,18.6104 C129.40178,19.4746 129.55049,20.1894 129.84313,20.7347 C130.1384,21.2872 130.54997,21.72 131.06484,22.02 C131.56121,22.31 132.13975,22.5079 132.78436,22.6073 C133.40326,22.7025 134.06781,22.751 134.75927,22.751 C135.18285,22.751 135.63309,22.7406 136.09775,22.7195 C136.56096,22.6979 136.98864,22.6549 137.36944,22.5907 L137.65434,22.5424 L137.65434,18.4072 L137.24594,18.4907 C137.05394,18.5298 136.84924,18.5592 136.63617,18.5781 C136.42162,18.5978 136.19409,18.6078 135.95912,18.6078 C135.11846,18.6078 134.45391,18.3367 134.45391,16.9645 L134.45391,9.46701 L137.65434,9.46701 L137.65434,5.82212 L134.45391,5.82212 L134.45391,1 Z" id="Fill-18" fill="#01114A"></path>
            <path d="M67.69683,20.714556 C67.61683,20.067956 67.57673,19.381056 67.57673,18.672856 L67.57673,10.304216 C67.57673,9.258866 67.33673,8.400046 66.86383,7.750826 C66.40163,7.117156 65.80023,6.615606 65.07613,6.260764 C64.36883,5.914418 63.57863,5.679311 62.72693,5.560786 C61.89175,5.4449328 61.0583,5.386156 60.24959,5.386156 C59.35151,5.386156 58.44334,5.4777215 57.5515,5.657452 C56.64597,5.840583 55.81829,6.15244 55.09127,6.585006 C54.35128,7.025836 53.73405,7.616026 53.25714,8.339566 C52.773745,9.072576 52.496008,9.998676 52.431138,11.092606 L52.409755,11.457896 L57.4518,11.457896 L57.48135,11.145796 C57.5527,10.379996 57.79729,9.833756 58.20789,9.522146 C58.63747,9.196686 59.25205,9.031286 60.03408,9.031286 C60.40264,9.031286 60.75293,9.056306 61.07584,9.105366 C61.36775,9.150296 61.62627,9.239436 61.84394,9.371076 C62.04983,9.496406 62.21083,9.667876 62.33643,9.896426 C62.46113,10.123276 62.52433,10.448726 62.52433,10.864296 L62.52463,10.879596 C62.53993,11.224976 62.44963,11.473676 62.24903,11.639806 C62.00183,11.844796 61.65342,12.005096 61.21327,12.116586 C60.73972,12.236076 60.18713,12.327156 59.57063,12.387876 C58.93106,12.450056 58.27228,12.534816 57.61181,12.639016 C56.94678,12.744666 56.27718,12.888206 55.62152,13.066966 C54.94087,13.252526 54.32557,13.535966 53.79268,13.909516 C53.24825,14.291806 52.798732,14.807926 52.456846,15.443556 C52.112797,16.082356 51.93813,16.896456 51.93813,17.864056 C51.93813,18.740356 52.088771,19.511756 52.385489,20.156156 C52.683649,20.804356 53.10482,21.348956 53.63675,21.774156 C54.16267,22.195056 54.78302,22.509156 55.47976,22.706856 C56.1633,22.901156 56.90857,22.999756 57.69542,22.999756 C58.7093,22.999756 59.71574,22.848156 60.68758,22.549256 C61.4665,22.309456 62.17283,21.925256 62.79513,21.403356 C62.80373,21.454056 62.81313,21.504856 62.82323,21.555356 C62.87583,21.823456 62.94673,22.094256 63.03443,22.359256 L63.11203,22.595156 L68.40513,22.595156 L68.07863,22.067356 C67.90033,21.779756 67.77203,21.324856 67.69683,20.714556 L67.69683,20.714556 Z M62.52433,16.028656 C62.52433,16.259156 62.49933,16.579956 62.45013,16.981456 C62.40473,17.349156 62.27853,17.720056 62.07603,18.083156 C61.87974,18.433856 61.56813,18.742856 61.1496,19.000556 C60.73419,19.256256 60.12058,19.385756 59.32629,19.385756 C59.00002,19.385756 58.67951,19.356356 58.37366,19.298256 C58.08896,19.244156 57.83861,19.150156 57.63031,19.018256 C57.43234,18.893656 57.28049,18.727056 57.16493,18.509156 C57.04913,18.292056 56.99026,18.012256 56.99026,17.677256 C56.99026,17.321956 57.04913,17.031456 57.16517,16.813856 C57.28362,16.591156 57.44219,16.404356 57.63631,16.259156 C57.84125,16.106556 58.08776,15.982256 58.36934,15.889956 C58.67206,15.791056 58.98416,15.711156 59.29337,15.652456 C59.62829,15.592956 59.97402,15.541456 60.32023,15.499856 C60.67533,15.457656 61.02034,15.404156 61.34541,15.340556 C61.67648,15.275716 61.99123,15.193376 62.28093,15.095986 C62.36533,15.067326 62.44623,15.035746 62.52433,15.001016 L62.52433,16.028656 Z" id="Fill-20" fill="#01114A"></path>
            <path d="M80.59937,15.7458745 L80.55667,16.0409745 C80.42427,16.9590745 80.09827,17.6954745 79.58717,18.2307745 C79.08507,18.7566745 78.37487,19.0123745 77.41673,19.0123745 C76.81032,19.0123745 76.29304,18.8741745 75.87956,18.6014745 C75.45599,18.3223745 75.11506,17.9587745 74.86591,17.5210745 C74.60836,17.0681745 74.41904,16.5529745 74.30419,15.9897745 C74.18647,15.4138745 74.12664,14.8409345 74.12664,14.2861945 C74.12664,13.7105745 74.18647,13.1213445 74.30443,12.5350345 C74.41904,11.9642745 74.61797,11.4350345 74.89499,10.9619145 C75.16407,10.5011645 75.51773,10.1196045 75.94587,9.8281545 C76.35815,9.5471345 76.88384,9.4045645 77.50923,9.4045645 C79.19707,9.4045645 80.14387,10.2150545 80.40337,11.8824245 L80.44877,12.1736345 L85.37977,12.1736345 L85.35867,11.8081045 C85.29407,10.7224345 85.03027,9.7664545 84.57497,8.9656845 C84.12307,8.1712245 83.52697,7.4969945 82.80357,6.9614445 C82.08587,6.4314845 81.26277,6.0312185 80.35607,5.7725525 C79.45767,5.5165575 78.51038,5.3863745 77.53998,5.3863745 C76.20655,5.3863745 75.00166,5.6156525 73.95894,6.0676505 C72.91238,6.5208645 72.01286,7.1620645 71.28632,7.9727945 C70.55978,8.7830445 70.003105,9.7550445 69.631187,10.8623345 C69.261671,11.9616045 69.07427,13.1662845 69.07427,14.4418845 C69.07427,15.6822745 69.27921,16.8393745 69.682602,17.8805745 C70.08623,18.9241745 70.65973,19.8366745 71.38651,20.5930745 C72.11281,21.3498745 73.00656,21.9470745 74.04303,22.3682745 C75.07398,22.7874745 76.21928,22.9999745 77.44748,22.9999745 C79.63167,22.9999745 81.45397,22.4085745 82.86457,21.2419745 C84.28037,20.0705745 85.14967,18.3529745 85.44827,16.1371745 L85.50087,15.7458745 L80.59937,15.7458745 Z" id="Fill-22" fill="#01114A"></path>
            <polygon id="Fill-24" fill="#01114A" points="86.97515 1 86.97515 10.7312 86.97515 12.8331 86.97515 22.5643 92.02728 22.5643 92.02728 12.8331 92.02728 10.7312 92.02728 1"></polygon>
            <path d="M150.99998,5.559815 C150.43708,5.4459044 149.80468,5.386399 149.10412,5.386399 C148.13469,5.386399 147.17414,5.612277 146.24963,6.057474 C145.57522,6.382447 144.98635,6.850479 144.4907,7.454029 L144.4907,5.821881 L139.65408,5.821881 L139.65408,22.595399 L144.70645,22.595399 L144.70645,14.226719 C144.70645,12.671809 144.95248,11.553829 145.4378,10.903159 C145.90726,10.273619 146.66383,9.967349 147.75027,9.967349 C149.88068,9.967349 150.99998,10.467429 150.99998,10.467429 L150.99998,5.559815 Z" id="Fill-26" fill="#01114A"></path>
        </g>
    </g>
</svg>
