<?xml version="1.0" encoding="utf-8"?>
<!-- Generator: Adobe Illustrator 24.2.1, SVG Export Plug-In . SVG Version: 6.00 Build 0)  -->
<svg version="1.1" id="Layer_1" xmlns="http://www.w3.org/2000/svg" xmlns:xlink="http://www.w3.org/1999/xlink" x="0px" y="0px"
	 viewBox="0 0 64 20" style="enable-background:new 0 0 64 20;" xml:space="preserve">
<path d="M31,4.4v6.8c0,4.3-3.3,5.7-4.8,6.1c-0.4,0.1-1-0.1-1.2-0.7c-0.1-0.5,0.2-1,0.7-1.2c1.5-0.4,3.3-1.5,3.3-4.2V4.4
	c0-0.5,0.4-1,1-1C30.5,3.4,31,3.8,31,4.4z M14.3,12.7c0.4,0.8-0.4,1.9-1.4,1.3c0,0-3.8-2.5-6.6-3.6l-1.7,3.2
	c-0.1,0.3-0.8,0.8-1.4,0.4c-4.7-2.7-3.8-8,2.1-6.2l2.4-4.6c0.5-0.8,1.5-0.6,1.8,0L14.3,12.7z M4.4,9.7c-3.8-1.1-1.8,1.5-1,2L4.4,9.7
	z M10.9,10.4L8.5,5.9L7.2,8.6C8.1,8.9,10.1,10,10.9,10.4z M25.9,8.7c0,3-2.4,5.4-5.4,5.4h-3.2c-0.6,0-1-0.5-1-1V4.4c0-0.6,0.5-1,1-1
	h3.2C23.5,3.4,25.9,5.8,25.9,8.7z M23.9,8.7c0-1.8-1.5-3.3-3.3-3.3h-2.2v6.7h2.2C22.4,12.1,23.9,10.6,23.9,8.7z M41.5,4.4v5
	c0,1.6-1.1,2.7-2.7,2.7c-1.6,0-2.7-1.1-2.7-2.7v-5c0-1.3-2-1.3-2,0v5c0,2.7,2,4.7,4.7,4.7s4.7-2,4.7-4.7v-5
	C43.5,3.1,41.5,3.1,41.5,4.4z M62.9,3.4h-7.4c-1.3,0-1.3,2,0,2h2.7v7.7c0,1.3,2,1.3,2,0V5.4h2.7C64.3,5.4,64.3,3.4,62.9,3.4z
	 M47.5,6c0.1-0.9,1.9-1.4,3.4-0.1c1,0.8,2.3-0.4,1.4-1.5c-1.7-1.9-6.8-1.8-6.8,1.8c0,3.8,5.9,3,5.3,5.2c-0.3,1-2.6,1.4-3.7-0.1
	c-0.9-1.3-2.5,0-1.7,1.1c2.3,3.3,7.5,1.9,7.5-1.3C52.9,7.4,47.4,8.1,47.5,6z"/>
</svg>
