<svg xmlns="http://www.w3.org/2000/svg" width="140" height="47" viewBox="0 0 595 148" xml:space="preserve">
  <path fill="#303030" d="M260 41.4c6.4 0 11.8.8 16.1 2.4 4.4 1.6 7.9 3.8 10.5 6.7s4.5 6.4 5.6 10.5c1.1 4 1.7 8.5 1.7 13.5V125c-2.9.7-7.4 1.5-13.5 2.4-6 .9-12.8 1.3-20.4 1.3-4.9 0-9.6-.4-13.7-1.5-4.2-.9-7.6-2.5-10.6-4.6-2.9-2.1-5.2-4.9-6.9-8.3s-2.5-7.6-2.5-12.6c0-4.8.9-8.8 2.8-12.1 1.9-3.3 4.4-6 7.5-8.1 3.1-2 6.9-3.6 11.1-4.5 4.2-.9 8.5-1.3 13.2-1.3 2.1 0 4.4.1 6.7.4 2.4.2 4.8.7 7.5 1.3v-3.1c0-2.2-.2-4.4-.8-6.4-.6-2-1.5-3.8-2.8-5.4s-3-2.7-5.3-3.6c-2.1-.9-4.9-1.2-8.2-1.2-4.5 0-8.5.3-12.3 1-3.7.7-6.7 1.3-9.1 2.2l-2.4-15.6c2.5-.9 6-1.7 10.7-2.6 4.8-.9 9.7-1.3 15.1-1.3zm1.6 72c6 0 10.5-.3 13.6-.9V91.1c-1-.3-2.6-.7-4.6-.9-2-.3-4.3-.4-6.7-.4-2.1 0-4.3.1-6.4.4s-4.2.9-5.8 1.8c-1.8.9-3.1 2-4.3 3.6-1 1.6-1.6 3.5-1.6 5.8 0 4.6 1.5 7.8 4.3 9.4 2.7 1.7 6.6 2.6 11.5 2.6zM335.8 19.1c0 3.6-1.1 6.5-3.5 8.7s-5.1 3.1-8.3 3.1c-3.3 0-6.1-1-8.4-3.1-2.4-2.1-3.5-4.9-3.5-8.7s1.1-6.6 3.5-8.8c2.4-2.1 5.2-3.1 8.4-3.1 3.1 0 6 1 8.3 3.1 2.3 2.2 3.5 5.1 3.5 8.8zM333.7 127h-19.3V43.5h19.3V127zM379.8 127c-5.3-10.9-10.8-23.5-16.4-37.8-5.6-14.2-10.7-29.5-15.3-45.6h20.6c1.1 4.7 2.6 9.7 4 15.1 1.6 5.4 3.1 10.8 4.9 16.1 1.8 5.4 3.6 10.6 5.4 15.6 1.9 5.1 3.6 9.6 5.2 13.6 1.6-4 3.3-8.5 5.2-13.6 1.8-5.1 3.6-10.2 5.4-15.6s3.5-10.8 5.1-16.1c1.6-5.4 3-10.3 4.2-15.1H428c-4.6 16.3-9.7 31.5-15.3 45.6-5.6 14.2-11.1 26.8-16.4 37.8h-16.5zM432.4 85.6c0-7.3 1.1-13.7 3.3-19.3 2.1-5.5 5.1-10.1 8.7-13.8s7.8-6.4 12.5-8.3c4.7-1.9 9.4-2.8 14.4-2.8 11.5 0 20.5 3.6 26.9 10.7s9.7 17.8 9.7 31.9c0 1 0 2.2-.1 3.6 0 1.3-.1 2.5-.2 3.6h-55c.6 6.7 2.9 11.9 7.1 15.5 4.2 3.7 10.3 5.5 18.2 5.5 4.7 0 9-.4 12.8-1.2 3.9-.9 7-1.8 9.2-2.7l2.6 15.7c-1 .6-2.5 1.1-4.4 1.7s-3.9 1.1-6.4 1.6c-2.4.4-4.9.9-7.8 1.2-2.8.3-5.6.4-8.4.4-7.3 0-13.7-1.1-19.1-3.3-5.4-2.1-9.9-5.2-13.4-9.1s-6.1-8.4-7.9-13.7c-1.8-5.2-2.7-10.9-2.7-17.2zm56-8.6c0-2.7-.3-5.2-1.1-7.5-.8-2.4-1.8-4.5-3.3-6.2-1.5-1.8-3.1-3.1-5.3-4.2-2-1-4.5-1.5-7.4-1.5s-5.6.6-7.9 1.7c-2.2 1.1-4.2 2.6-5.6 4.4-1.6 1.8-2.7 3.9-3.6 6.2-.9 2.4-1.5 4.7-1.8 7.2l36-.1zM524.9 46.2c3.7-1 8.5-2 14.5-3s12.6-1.5 19.8-1.5c6.9 0 12.5.9 17.1 2.8 4.6 1.9 8.2 4.5 10.9 7.9s4.6 7.4 5.7 12.1c1.1 4.7 1.7 9.9 1.7 15.5v47h-19.3V83.1c0-4.5-.3-8.3-.9-11.4-.6-3.1-1.6-5.7-2.9-7.6-1.3-1.9-3.1-3.4-5.4-4.3-2.2-.9-5.1-1.3-8.3-1.3-2.5 0-4.9.1-7.6.4-2.7.3-4.6.6-5.8.8V127h-19.3V46.2h-.2z"/>
  <g>
    <linearGradient id="SVGID_1_" gradientUnits="userSpaceOnUse" x1="52.389" y1="134.836" x2="132.612" y2="26.387">
      <stop offset="0" stop-color="#f70"/>
      <stop offset=".742" stop-color="#ff3554"/>
    </linearGradient>
    <path d="M139.1 99.9c3.1 0 6.2.6 9 1.6 4.5-5.2 6.9-10.8 6.9-16.7 0-9.6-6.5-18.8-18.2-26C124.2 51.2 107.3 47 89.4 47c-18 0-34.8 4.2-47.4 11.9-11.8 7.2-18.2 16.4-18.2 26 0 5.8 2.4 11.5 6.9 16.7 2.9-1 5.9-1.6 9-1.6 7.1 0 13.7 2.7 18.7 7.8 3.5 3.5 5.8 7.8 7 12.4 7.6 1.8 15.7 2.7 24 2.7s16.5-1 24-2.7c1.1-4.7 3.5-9 7-12.4 5-5.1 11.6-7.9 18.7-7.9zm-49.7-22c-8.1 0-14.7-6.6-14.7-14.7h29.4c0 8.1-6.6 14.7-14.7 14.7z" fill="url(#SVGID_1_)"/>
    <linearGradient id="SVGID_2_" gradientUnits="userSpaceOnUse" x1="-3.058" y1="93.82" x2="77.165" y2="-14.629">
      <stop offset="0" stop-color="#f70"/>
      <stop offset=".742" stop-color="#ff3554"/>
    </linearGradient>
    <path d="M38.3 52c1.4-.9 2.9-1.7 4.4-2.4h-.1c-3.7-2.8-8.1-4.1-12.4-4.1-6.3 0-12.5 2.8-16.6 8.3L12 55.9l11.7 8.8c3.6-4.7 8.5-9 14.6-12.7z" fill="url(#SVGID_2_)"/>
    <linearGradient id="SVGID_3_" gradientUnits="userSpaceOnUse" x1="6.471" y1="100.87" x2="86.694" y2="-7.58">
      <stop offset="0" stop-color="#f70"/>
      <stop offset=".742" stop-color="#ff3554"/>
    </linearGradient>
    <path d="M23.8 105.2c-3.9-5-6.4-10.5-7.1-16.3-.2-1.3-.3-2.7-.3-4 0-6.7 2.2-13.2 6.5-19h-1.5C10 65.9.7 75.2.7 86.6v2.9h15.4c-4 3.3-6.6 8-7.3 13.2-.7 5.5.7 10.9 4.1 15.3l1.3 1.7c1.2-4.5 3.5-8.6 6.9-12 .7-.9 1.7-1.7 2.7-2.5z" fill="url(#SVGID_3_)"/>
    <linearGradient id="SVGID_4_" gradientUnits="userSpaceOnUse" x1="77.084" y1="153.103" x2="157.307" y2="44.654">
      <stop offset="0" stop-color="#f70"/>
      <stop offset=".742" stop-color="#ff3554"/>
    </linearGradient>
    <path d="m155 64.7 11.7-8.8-1.7-2.3c-4.1-5.4-10.3-8.3-16.6-8.3-4.3 0-8.7 1.4-12.4 4.1h-.1c1.5.8 3 1.6 4.4 2.4 6.2 3.9 11.1 8.2 14.7 12.9z" fill="url(#SVGID_4_)"/>
    <linearGradient id="SVGID_5_" gradientUnits="userSpaceOnUse" x1="101.991" y1="171.528" x2="182.214" y2="63.078">
      <stop offset="0" stop-color="#f70"/>
      <stop offset=".742" stop-color="#ff3554"/>
    </linearGradient>
    <path d="M178.1 86.5c0-11.4-9.3-20.7-20.7-20.7h-1.5c4.2 5.9 6.5 12.3 6.5 19 0 1.4-.1 2.7-.3 4-.8 5.7-3.2 11.2-7.1 16.3 1 .8 2 1.6 2.9 2.5 3.4 3.4 5.7 7.5 6.9 12l1.3-1.7c3.4-4.4 4.8-9.8 4.1-15.3-.7-5.2-3.3-9.8-7.3-13.2h15.4v-2.9z" fill="url(#SVGID_5_)"/>
    <g>
      <linearGradient id="SVGID_6_" gradientUnits="userSpaceOnUse" x1="5.989" y1="100.513" x2="86.212" y2="-7.937">
        <stop offset="0" stop-color="#f70"/>
        <stop offset=".742" stop-color="#ff3554"/>
      </linearGradient>
      <path d="M64.4 42.2c11.4 0 20.7-9.3 20.7-20.7C85.1 10.1 75.8.8 64.4.8 53 .8 43.7 10.1 43.7 21.5c0 11.4 9.3 20.7 20.7 20.7zm0-32c.1 0 .1 0 0 0-1.4 1.5-2.3 3.5-2.3 5.7 0 4.4 3.6 8 8 8 2.2 0 4.2-.9 5.7-2.4v.1c0 6.3-5.1 11.4-11.4 11.4C58.1 33 53 27.9 53 21.6c.1-6.4 5.2-11.4 11.4-11.4z" fill="url(#SVGID_6_)"/>
    </g>
    <g>
      <linearGradient id="SVGID_7_" gradientUnits="userSpaceOnUse" x1="38.204" y1="124.343" x2="118.427" y2="15.893">
        <stop offset="0" stop-color="#f70"/>
        <stop offset=".742" stop-color="#ff3554"/>
      </linearGradient>
      <path d="M114.3 42.2c11.4 0 20.7-9.3 20.7-20.7C135 10.1 125.7.8 114.3.8c-11.4 0-20.7 9.3-20.7 20.7 0 11.4 9.2 20.7 20.7 20.7zm0-32c-1.4 1.5-2.3 3.5-2.3 5.7 0 4.4 3.6 8 8 8 2.2 0 4.2-.9 5.7-2.4v.1c0 6.3-5.1 11.4-11.4 11.4-6.3 0-11.4-5.1-11.4-11.4 0-6.4 5.1-11.4 11.4-11.4z" fill="url(#SVGID_7_)"/>
    </g>
    <g>
      <linearGradient id="SVGID_8_" gradientUnits="userSpaceOnUse" x1="39.731" y1="125.473" x2="119.954" y2="17.023">
        <stop offset="0" stop-color="#f70"/>
        <stop offset=".742" stop-color="#ff3554"/>
      </linearGradient>
      <path d="M39.6 105.7c-11.4 0-20.7 9.3-20.7 20.7 0 11.4 9.3 20.7 20.7 20.7 2.4 0 4.7-.4 6.8-1.2l-.6-.6c-6-6-8-13.7-4.5-17.2s11.2-1.5 17.2 4.5l.6.6c.8-2.1 1.2-4.4 1.2-6.8 0-11.4-9.2-20.7-20.7-20.7z" fill="url(#SVGID_8_)"/>
    </g>
    <g>
      <linearGradient id="SVGID_9_" gradientUnits="userSpaceOnUse" x1="104.39" y1="173.303" x2="184.613" y2="64.853">
        <stop offset="0" stop-color="#f70"/>
        <stop offset=".742" stop-color="#ff3554"/>
      </linearGradient>
      <path d="M139.1 105.7c-11.4 0-20.7 9.3-20.7 20.7 0 2.4.4 4.7 1.2 6.8l.6-.6c6-6 13.7-8 17.2-4.5s1.5 11.2-4.5 17.2l-.6.6c2.1.8 4.4 1.2 6.8 1.2 11.4 0 20.7-9.3 20.7-20.7 0-11.4-9.3-20.7-20.7-20.7z" fill="url(#SVGID_9_)"/>
    </g>
  </g>
</svg>