<?xml version="1.0" encoding="utf-8"?>
<svg xmlns="http://www.w3.org/2000/svg" viewBox="0 0 307.52 84.26"><defs><style>.cls-1{fill:#051626;}</style></defs><title>Ресурс 1</title><g id="Слой_2" data-name="Слой 2"><g id="Layer_1" data-name="Layer 1"><path class="cls-1" d="M4.26,59.62H1.32A1.32,1.32,0,0,1,0,58.31v-57A1.32,1.32,0,0,1,1.32,0H276.77a1.32,1.32,0,0,1,1.32,1.32V4.26a1.32,1.32,0,0,1-1.32,1.32H6.11a.53.53,0,0,0-.53.53v52.2A1.32,1.32,0,0,1,4.26,59.62Z"></path><path class="cls-1" d="M301.94,26v52.2a.52.52,0,0,1-.53.52H30.75A1.32,1.32,0,0,0,29.43,80v2.94a1.32,1.32,0,0,0,1.32,1.32H306.2a1.32,1.32,0,0,0,1.32-1.32V26a1.32,1.32,0,0,0-1.32-1.32h-2.94A1.32,1.32,0,0,0,301.94,26Z"></path><path class="cls-1" d="M138.73,53.59l-9.42-26.48a3.71,3.71,0,0,0-3.51-2.48h-6a3.72,3.72,0,0,0-3.73,3.72V57.73a1.9,1.9,0,0,0,1.9,1.9h2.94a1.9,1.9,0,0,0,1.9-1.9V42.83h0v-12a.53.53,0,0,1,1-.18l9.42,26.51a3.74,3.74,0,0,0,3.53,2.49h6a3.74,3.74,0,0,0,3.74-3.74V42.83h0V26.53a1.91,1.91,0,0,0-1.9-1.9h-3a1.9,1.9,0,0,0-1.9,1.9V53.41A.53.53,0,0,1,138.73,53.59Z"></path><path class="cls-1" d="M100.85,37.57a16,16,0,0,0-.87-5.22A12.88,12.88,0,0,0,97.47,28c-4.93-5.58-18.74-5.58-23.68,0a12.71,12.71,0,0,0-2.51,4.31,16,16,0,0,0-.87,5.22h0v9.12h0a16,16,0,0,0,.87,5.22,12.78,12.78,0,0,0,2.51,4.31c4.93,5.59,18.74,5.59,23.68,0A12.78,12.78,0,0,0,100,51.91a16,16,0,0,0,.87-5.22h0V37.57Zm-6.65,8a13,13,0,0,1-.43,3.33h0c-1.81,7-14.47,7-16.32,0a13.18,13.18,0,0,1-.41-3.06V38.73a13.41,13.41,0,0,1,.42-3.34h0c1.81-7.05,14.47-7,16.32,0a13.19,13.19,0,0,1,.41,3.07Z"></path><path class="cls-1" d="M162,31.19h9.15a1,1,0,0,1,1.05,1.05V57.73a1.9,1.9,0,0,0,1.9,1.9h2.77a1.9,1.9,0,0,0,1.9-1.9V32.24a1,1,0,0,1,1.05-1.05H189a1.9,1.9,0,0,0,1.89-1.9V26.52A1.89,1.89,0,0,0,189,24.63H162a1.89,1.89,0,0,0-1.89,1.89v2.77A1.9,1.9,0,0,0,162,31.19Z"></path><path class="cls-1" d="M270.19,51.32a1,1,0,0,1,.34-1.66,13.09,13.09,0,0,0,7.79-13.32c-.66-6.47-7-11.71-13.51-11.71H250.89a1.9,1.9,0,0,0-1.9,1.89V57.73a1.9,1.9,0,0,0,1.9,1.9h2.94a1.9,1.9,0,0,0,1.9-1.9V51.81a1.06,1.06,0,0,1,1-1.06h2.6a4.31,4.31,0,0,1,3.18,1.4l5.9,6.42a3.25,3.25,0,0,0,2.41,1.06h3.95a1.32,1.32,0,0,0,1-2.21ZM265.14,44h-8.36a1,1,0,0,1-1-1V32.42a1.06,1.06,0,0,1,1.06-1.06l8.53,0A6.33,6.33,0,0,1,271.5,39,6.43,6.43,0,0,1,265.14,44Z"></path><path class="cls-1" d="M51.15,25.67l-12.83,14a.69.69,0,0,1-1.19-.47V26.52a1.9,1.9,0,0,0-1.9-1.89H32.28a1.89,1.89,0,0,0-1.89,1.89V57.73a1.9,1.9,0,0,0,1.89,1.9h2.95a1.9,1.9,0,0,0,1.89-1.9V50.89a3.68,3.68,0,0,1,.54-1.37,3.82,3.82,0,0,1,5.69.07l7.8,8.91a3.29,3.29,0,0,0,2.47,1.12h3.9a1.32,1.32,0,0,0,1-2.21L45.1,42.84a1.06,1.06,0,0,1,0-1.43L58.49,26.82a1.32,1.32,0,0,0-1-2.21H53.58A3.35,3.35,0,0,0,51.15,25.67Z"></path><path class="cls-1" d="M231.89,24.63h-2.84a1.9,1.9,0,0,0-1.9,1.89s0,19,0,19a13.17,13.17,0,0,1-.42,3.31h0c-1.81,7-14.47,7-16.32,0a13.18,13.18,0,0,1-.41-3.06V26.52a1.89,1.89,0,0,0-1.89-1.89h-2.85a1.9,1.9,0,0,0-1.9,1.89V46.63a16.06,16.06,0,0,0,.87,5.28,12.64,12.64,0,0,0,2.52,4.31c4.94,5.59,18.74,5.59,23.67,0a12.62,12.62,0,0,0,2.51-4.31,16.06,16.06,0,0,0,.87-5.28V26.52A1.89,1.89,0,0,0,231.89,24.63Z"></path></g></g></svg>