<svg id="Layer_1" data-name="Layer 1" xmlns="http://www.w3.org/2000/svg" xmlns:xlink="http://www.w3.org/1999/xlink" viewBox="0 0 1362.73 227"><defs><style>.cls-1{fill:url(#linear-gradient);}.cls-2{fill:url(#linear-gradient-2);}.cls-3{fill:url(#linear-gradient-3);}.cls-4{fill:url(#linear-gradient-4);}.cls-5{fill:url(#linear-gradient-5);}.cls-6{fill:url(#linear-gradient-6);}.cls-7{fill:url(#linear-gradient-7);}.cls-8{fill:#060606;}.cls-9{fill:#f5f5f5;}.cls-10{fill:url(#linear-gradient-8);}</style><linearGradient id="linear-gradient" x1="313.04" y1="126.14" x2="313.04" y2="32.4" gradientTransform="matrix(1, 0, 0, -1, 0, 204)" gradientUnits="userSpaceOnUse"><stop offset="0" stop-color="#298dd1"/><stop offset="1" stop-color="#0067a1"/></linearGradient><linearGradient id="linear-gradient-2" x1="403.75" y1="125.79" x2="403.75" y2="35.57" xlink:href="#linear-gradient"/><linearGradient id="linear-gradient-3" x1="486.67" y1="123.21" x2="486.67" y2="32.59" xlink:href="#linear-gradient"/><linearGradient id="linear-gradient-4" x1="592.89" y1="125.96" x2="592.89" y2="35.45" xlink:href="#linear-gradient"/><linearGradient id="linear-gradient-5" x1="695.94" y1="126.14" x2="695.94" y2="32.4" xlink:href="#linear-gradient"/><linearGradient id="linear-gradient-6" x1="799.79" y1="167.35" x2="799.79" y2="35.45" xlink:href="#linear-gradient"/><linearGradient id="linear-gradient-7" x1="893.5" y1="123.23" x2="893.5" y2="-7.51" xlink:href="#linear-gradient"/><linearGradient id="linear-gradient-8" x1="10.26" y1="106" x2="216.38" y2="106" gradientTransform="matrix(1, 0, 0, -1, 0, 204)" gradientUnits="userSpaceOnUse"><stop offset="0" stop-color="#2096da"/><stop offset="1" stop-color="#0067aa"/></linearGradient></defs><path class="cls-1" d="M356.26,109.9H331.72c-2.2-6.78-8.28-11.17-17-11.17-13.37,0-21.42,10.44-21.42,25.81,0,14.47,8.05,26,22.15,26a17.66,17.66,0,0,0,17.39-12.08H357.9c-5,17.94-18.31,33.14-42.85,33.14-26,0-46.87-18.49-46.87-47.24,0-25.63,17.77-46.5,46.69-46.5C340,77.86,353.44,95.25,356.26,109.9Z"/><path class="cls-2" d="M433,102a62.47,62.47,0,0,0-11.73-1.11c-14.65,0-22,9.16-22,24.85v42.66H374.53V80.79H398.7V94.32h.55c4.77-8.59,13.92-16.1,25.65-16.1A33.53,33.53,0,0,1,433,79Z"/><path class="cls-3" d="M528,168.48H503.43v-11h-.55c-7.14,10.43-16.12,13.91-25.65,13.91-14.28,0-31.85-8.78-31.85-38.63v-52h24.71v48.84c0,12.82,6.05,19.78,15.58,19.78,10.8,0,17.58-7.5,17.58-22.15V80.79H528Z"/><path class="cls-4" d="M550.6,80.79H575v11h.73c6.05-9.71,15.94-13.73,26-13.73,19.77,0,33.5,13.17,33.5,40.09v50.35H610.5V119.79c0-13.26-6.23-20-16.46-20-10.82,0-18.69,7.69-18.69,22.34v46.39H550.6Z"/><path class="cls-5" d="M739.2,109.9H714.62c-2.21-6.78-8.29-11.17-17-11.17-13.35,0-21.42,10.44-21.42,25.81,0,14.47,8.07,26,22.15,26a17.68,17.68,0,0,0,17.4-12.08h25.08c-5,17.94-18.31,33.14-42.84,33.14-26,0-46.87-18.49-46.87-47.24,0-25.63,17.76-46.5,46.69-46.5C722.9,77.86,736.45,95.25,739.2,109.9Z"/><path class="cls-6" d="M757.49,36.65h24.72V91.77h.73C789,82.06,798.86,78,808.75,78c19.59,0,33.34,13,33.34,40.09v50.35H817.33V119.59c0-13-6.23-19.77-16.48-19.77-10.8,0-18.67,7.51-18.67,22.34v46.39H757.49Z"/><path class="cls-7" d="M889.11,211.51H865.66l16.12-43.77-31.86-87h25.63l12.64,38.11a188.84,188.84,0,0,1,5.87,21.54h.73a181.52,181.52,0,0,1,5.68-21.54l12.26-38.11h24.35Z"/><path d="M1053.59,168.48h-14.47V156.77h-.36A41.62,41.62,0,0,1,1006,171.68c-23.81,0-44.32-18.49-44.32-47.05,0-26.51,18.87-46.69,44.32-46.69,16.57,0,25.26,6.63,32.77,15.37h.36V36.65h14.47Zm-45-9.69c17,0,31.86-13.74,31.86-33.7,0-20.88-13.92-34.61-31.48-34.61-21.42,0-32.23,17-32.23,34.06s10.79,34.25,31.85,34.25Z"/><path d="M1164.71,168.48h-14.47V156.77h-.36a41.19,41.19,0,0,1-32,14.91c-23.81,0-45-18.49-45-47.05,0-27.11,19.78-46.69,46-46.69,15.92,0,25.26,8.42,31.31,15.56h.18V80.87h14.47Zm-44.87-9.69c16.49,0,31.68-13.92,31.68-33.7,0-20.88-14.1-34.61-31.31-34.61-22,0-32.41,17.21-32.41,34.06s10.44,34.25,32,34.25Z"/><path d="M1180.43,80.79H1192v-28h14.46v28h23.38V92.87h-23.45v46.39c0,14.28,4.39,18.12,13.74,18.12a40.13,40.13,0,0,0,10.62-1.46v11.82a43.47,43.47,0,0,1-13.55,1.83c-21.24,0-25.27-14.28-25.27-30.94V92.87h-11.6Z"/><path d="M1332.59,168.48h-14.47V156.77h-.44a41.21,41.21,0,0,1-32,14.91c-23.8,0-45-18.49-45-47.05,0-27.11,19.78-46.69,46-46.69,15.93,0,25.27,8.42,31.32,15.56h.18V80.87h14.55Zm-44.87-9.69c16.57,0,31.68-13.92,31.68-33.7,0-20.88-14.1-34.61-31.31-34.61-22,0-32.41,17.21-32.41,34.06s10.42,34.25,32,34.25Z"/><path class="cls-8" d="M119.08,223c-51.34-.35-96.41-33.51-110.48-81.23C-8.75,83,25.24,23.6,85.07,9c45.16-11,84,1.35,114.68,35.57,35.53,39.6,37.2,95.2,6.95,135.23-18.36,24.3-43,38.23-73.19,42.2-3.71.49-7.45.71-11.18,1C121.26,223,120.16,223,119.08,223ZM110.81,10.49c-3.1,0-6.2-.14-9.29,0-1,0-3,.32-2.17,1.94,1.34,2.62,2.88,5.41,5.08,7.24,1.63,1.37,4.26,0,6.4-.66L126,17.34h21.48c-7.09-3.67-14.56-4.93-22.19-5.5C120.38,12.23,115.74,9.82,110.81,10.49ZM60.06,24.73c-12.25,6.21-21.91,15.6-30,26.31C16.34,69.16,9.84,90,10.3,112.72a100.35,100.35,0,0,0,20.46,59.63c3.58,4.76,7.26,9.46,12.05,13.29a4.53,4.53,0,0,0,.47-3.38c-.53-6.1,1.54-11.33,5.19-16.06,1.32-1.71,2.67-3.4,4.09-5,1.71-2,1.87-2.92-1.17-3.9-12.24-3.93-22-11.09-28.13-22.71a2.29,2.29,0,0,0-1.15-1.2c-5.55-2.47-6.94-7-6.39-12.65,1.06-10.8,4.36-21.09,7.12-31.49A9.65,9.65,0,0,1,26.5,84a17.19,17.19,0,0,0,6.07-8.69c1.66-4.81,5-7,10.16-7.08,2.53,0,5.07-.06,7.6,0,4,.12,7.62-.68,10.44-3.75,2.49-.3,3.55-2.67,5.52-3.77,5.4-3,7.52-7.69,7.67-13.89.14-5.74,2.41-10.66,8.18-13.37a38.78,38.78,0,0,0,8.55-5.93,6.74,6.74,0,0,0,2.69-6.31,13.39,13.39,0,0,1,1.8-9.08C82.15,14.14,70.6,18,60.06,24.73Zm46.23,67.15c6,.08,10.4,2.73,14.4,6.15,7.34,6.29,9.27,23.76-1.61,29.64-9.64,5.22-19.66,8.57-30.79,7.54l-15.5-1.46c-12.71-1.21-25.35-3.6-38.23-1.65-2.93.44-3.74,1.13-1.75,3.58,7.94,9.74,18,15.23,30.77,14.54s25.27-2.55,37.9-.23c14.28,2.63,25.4-1.77,33.16-14.22,1-1.56,2.24-3.2,4.35-1.9s1.35,2.93.26,4.65C132.61,149,124.51,157,110.94,156.76a56.55,56.55,0,0,0-6.49.62,6.28,6.28,0,0,0-5,2.6c-2.53,3.81-5.37,7.46-7,11.76-4.44,11.33-8.79,22.7-13.22,34-1,2.47-.54,3.85,2.21,4.81A112.22,112.22,0,0,0,118,217a103.14,103.14,0,0,0,64.1-21.15c1.13-.84,1.77-1.66,1.26-3-3.14-8.22-.93-16.11,1.29-24.07,1.82-6.53,3-13.15,1.85-20s-1.11-6.89-6.63-3.22c-4.76,3.17-10.11,5.09-15.41,7.07-2,.73-4.86,1.1-5.62-.76-1-2.54,2.2-2.53,3.73-3.28,4.33-2.12,9.28-3.14,13-6.17,9.9-8,14.59-18.9,16.34-31.18.8-5.61,1-11.29,1.53-16.94.09-1.08.2-2.22,1.76-2.22s1.51,1.26,1.61,2.28c.08.84,0,1.69,0,2.53.4,13.26-2.46,26.16-4.5,39.13-2.15,13.6-.71,26.93,2.26,40.21.37,1.66,1.1,3.64,2.47,4.07,1.9.6,2.59-1.72,3.57-3a98.84,98.84,0,0,0,18.59-41.15c2.42-11.71,2.1-22.82-4-33.65-4.29-7.64-8.11-15.57-12.29-23.31-8.66-16.06-20.92-29.42-32.4-43.35-3.5-4.25-7.34-8.36-12.38-11-.72-.37-1.46-1.19-2.31-.75-1.17.62-.47,1.79-.27,2.59,1.56,6.34-4.1,13.51-10.24,15.63-1.38.48-3.09,1.17-3.9-.41s1-2.09,2-2.91c4.13-3.54,6.42-9.42,5.38-14-3,1.43-5.59,3.21-7.09,6.35-.67,1.38-1.62,3.84-3.28,2.93-2-1.13-.9-3.45.17-5.13a12.78,12.78,0,0,1,3.74-3.87c1.56-1,3.61-1.21,5.16-2.81a10.37,10.37,0,0,0-5.64-1.28c-11.34.15-22.71-.08-33.92,2.18-3.55.72-7.15,1.46-10,4a63.28,63.28,0,0,1-13.29,9.31c-2,1-4,2.21-3.28,4.92s2.69,3.77,5.26,4.12c1,.14,2.4-.2,2.7,1.22s-1,1.81-1.84,2.44Q76.66,57.86,66.21,66.79a23.32,23.32,0,0,1-16.35,5.73c-2.41-.08-4.83,0-7.25,0-5.67,0-6.91,1.73-5.39,7.2.57,2,.75,4.12-1.07,5.7s-3.71,1.43-5.56-.06c-1-.78-1.67-.43-2.42.48-1.68,2-1.36,3.53,1.27,4.22,4.67,1.22,8.11-1.2,11.32-4.14.69-.64,1.43-1.68,2.44-1s.37,1.8-.06,2.63c-2,3.91-9.88,8.09-14.3,7.52-1.18-.15-1.79,0-2.09,1.21-1.86,7.6-4.36,15.07-4.94,22.93S23,128.84,31,127c13-3,25.88-3.87,38.93.2,7,2.2,14.57,2.38,21.93,1.6,8.66-.91,17.22-2.42,24.45-7.91a11.52,11.52,0,0,0,4.8-8.5c.49-5.11-1.86-8.84-5.32-12.09C112.84,97.56,109.73,94.92,106.29,91.88ZM79.93,154.3v.12c-1.21-.08-2.41-.22-3.61-.23-5.55-.05-11.27-.48-15.51,4.13C55.59,164,51.47,170.35,50,178c-2.29,12.08-.62,15.44,10,21.71l3.42,2c8.55,5.06,8.55,5.06,11.7-4.23,1.46-4.3.41-7.4-3.43-9.91-.9-.59-1.94-.95-2.89-1.47s-1.72-1.16-1.52-2.23a2.37,2.37,0,0,1,1.9-2c3.31-.45,6.68-1.53,10-.35,1.7.61,2.4.11,3-1.29q5.28-11.47,10.61-22.92c.74-1.58.33-2.16-1.36-2.25C87.62,154.88,83.77,154.57,79.93,154.3Zm91-125.15A260.26,260.26,0,0,1,216.34,92c1.25-16.83-28.72-58.34-45.34-62.85Z"/><path class="cls-9" d="M106.29,91.88c3.44,3,6.55,5.68,9.52,8.47,3.46,3.25,5.81,7,5.32,12.09a11.52,11.52,0,0,1-4.8,8.5c-7.23,5.49-15.79,7-24.45,7.91-7.36.78-14.88.6-21.93-1.6C57,123.18,44,124,31,127.05c-8,1.85-9.76.29-9.16-7.73.58-7.86,3.08-15.33,4.94-22.93.3-1.24.91-1.36,2.09-1.21,4.42.57,12.27-3.61,14.3-7.52.43-.83,1-1.94.06-2.63s-1.75.31-2.44,1c-3.21,2.94-6.65,5.36-11.32,4.14-2.63-.69-2.95-2.18-1.27-4.22.75-.91,1.46-1.26,2.42-.48,1.85,1.49,3.74,1.65,5.56.06s1.64-3.67,1.07-5.7c-1.52-5.47-.28-7.16,5.39-7.2,2.42,0,4.84-.07,7.25,0a23.32,23.32,0,0,0,16.35-5.73q10.47-8.92,21.27-17.42c.81-.63,2.11-1.13,1.84-2.44s-1.68-1.08-2.7-1.22c-2.57-.35-4.56-1.56-5.26-4.12s1.31-3.89,3.28-4.92A63.36,63.36,0,0,0,98,27.43c2.8-2.54,6.4-3.28,10-4,11.21-2.26,22.58-2,33.92-2.18a10.37,10.37,0,0,1,5.64,1.28c-1.55,1.6-3.6,1.76-5.16,2.81a12.78,12.78,0,0,0-3.74,3.87c-1.07,1.68-2.2,4-.17,5.13,1.66.91,2.61-1.55,3.28-2.93,1.5-3.14,4.06-4.92,7.09-6.35,1,4.56-1.25,10.44-5.38,14-.95.82-2.79,1.36-2,2.91s2.52.89,3.9.41c6.14-2.12,11.8-9.29,10.24-15.63-.2-.8-.9-2,.27-2.59.85-.44,1.59.38,2.31.75,5,2.6,8.88,6.71,12.38,11C182.06,49.84,194.32,63.2,203,79.26c4.18,7.74,8,15.67,12.29,23.31,6.07,10.83,6.39,21.94,4,33.65a98.84,98.84,0,0,1-18.59,41.15c-1,1.26-1.67,3.58-3.57,3-1.37-.43-2.1-2.41-2.47-4.07-3-13.28-4.41-26.61-2.26-40.21,2-13,4.9-25.87,4.5-39.13a19.42,19.42,0,0,0,0-2.53c-.1-1,.05-2.29-1.61-2.28s-1.67,1.14-1.76,2.22c-.51,5.65-.73,11.33-1.53,16.94-1.75,12.28-6.44,23.21-16.34,31.18-3.76,3-8.71,4-13,6.17-1.53.75-4.76.74-3.73,3.28.76,1.86,3.66,1.49,5.62.76,5.3-2,10.65-3.9,15.41-7.07,5.52-3.67,5.48-3.63,6.63,3.22s0,13.48-1.85,20c-2.22,8-4.43,15.85-1.29,24.07.51,1.33-.13,2.15-1.26,3A103.11,103.11,0,0,1,118,217a112.08,112.08,0,0,1-36.54-6.41c-2.75-1-3.18-2.34-2.21-4.81,4.43-11.33,8.78-22.7,13.22-34,1.68-4.3,4.52-8,7-11.76a6.28,6.28,0,0,1,5-2.6,56.55,56.55,0,0,1,6.49-.62c13.57.28,21.67-7.8,28.31-18.24,1.09-1.72,1.8-3.38-.26-4.65s-3.38.34-4.35,1.9C127,148.26,115.83,152.66,101.55,150c-12.63-2.32-25.26-.45-37.9.23s-22.83-4.8-30.77-14.54c-2-2.45-1.18-3.14,1.75-3.58,12.88-1.95,25.52.44,38.23,1.65l15.5,1.46c11.13,1,21.15-2.32,30.79-7.54C130,121.79,128,104.32,120.69,98,116.69,94.61,112.3,92,106.29,91.88Zm15.37-44.43c-5-.06-11.54,3.14-14.57,7a2.43,2.43,0,0,0-.43,2.93c.71,1.17,1.73.52,2.47,0,1.31-1,1.61.27,2.25.84C115.54,62,121,61,123.32,56c.83-1.78.34-4.26,3.12-5,.72-.2.46-1.65-.67-2.25a10.51,10.51,0,0,0-4.11-1.29Zm-55.2,54.21c3.2-.58,6-1.51,7.78-4.25a2.73,2.73,0,0,0-.15-3.62c-1-1.12-1.92-1-3.18-.4a18.19,18.19,0,0,1-5.38,2c-4.61.56-9.38,1.3-12.86-3.12-.73-.93-1.4-2.76-2.91-1.82s.06,2.38.29,3.55c.15.73,1,1.34,1.47,2C55.46,100.76,61.4,100.21,66.46,101.66ZM60.76,80.9c-2.27.31-4.75.44-5.09,3.45-.25,2.3,3.68,7.63,5.55,7.78s4.26-2.76,4.23-5.42c0-3.29-2-5.77-4.69-5.81Z"/><path class="cls-9" d="M79.93,154.3c3.84.27,7.69.58,11.54.8,1.69.09,2.1.67,1.36,2.25q-5.35,11.43-10.61,22.92c-.64,1.4-1.34,1.9-3,1.29-3.3-1.18-6.67-.1-10,.35a2.37,2.37,0,0,0-1.9,2c-.2,1.07.65,1.75,1.52,2.23s2,.88,2.89,1.47c3.84,2.51,4.89,5.61,3.43,9.91-3.15,9.29-3.15,9.29-11.7,4.23l-3.42-2c-10.64-6.3-12.31-9.66-10-21.75,1.45-7.66,5.57-14,10.78-19.69,4.24-4.61,10-4.18,15.51-4.13,1.2,0,2.4.15,3.61.23Z"/><path class="cls-10" d="M95.18,12.12a13.39,13.39,0,0,0-1.8,9.08,6.74,6.74,0,0,1-2.69,6.31,38.78,38.78,0,0,1-8.55,5.93c-5.77,2.71-8,7.63-8.18,13.37C73.81,53,71.69,57.7,66.29,60.7c-2,1.1-3,3.47-5.52,3.77-2.82,3.07-6.45,3.87-10.44,3.75-2.53-.08-5.07,0-7.6,0-5.13,0-8.5,2.27-10.16,7.08A17.16,17.16,0,0,1,26.5,84a9.6,9.6,0,0,0-3.68,5.24c-2.76,10.4-6.06,20.69-7.12,31.49-.55,5.6.84,10.18,6.39,12.65a2.29,2.29,0,0,1,1.15,1.2c6.1,11.62,15.89,18.78,28.13,22.71,3,1,2.88,1.92,1.17,3.9-1.42,1.64-2.77,3.33-4.09,5-3.65,4.73-5.72,10-5.19,16.06a4.53,4.53,0,0,1-.47,3.38c-4.79-3.83-8.47-8.53-12-13.29a100.35,100.35,0,0,1-20.46-59.63C9.82,90,16.32,69.16,30,51c8.11-10.71,17.77-20.1,30-26.31C70.6,18,82.15,14.14,95.18,12.12Zm75.78,17A260.31,260.31,0,0,1,216.34,92c1.25-16.83-28.72-58.34-45.34-62.85ZM110.81,10.49c-3.1,0-6.2-.14-9.29,0-1,0-3,.32-2.17,1.94,1.34,2.62,2.88,5.41,5.08,7.24,1.63,1.37,4.26,0,6.4-.65L126,17.34h21.48c-7.09-3.67-14.56-4.93-22.19-5.5C120.38,12.23,115.74,9.82,110.81,10.49Z"/><path class="cls-8" d="M121.66,47.45a10.58,10.58,0,0,1,4.11,1.22c1.13.6,1.39,2,.67,2.25-2.78.78-2.29,3.26-3.12,5-2.31,5-7.78,6-11.94,2.23-.64-.57-.94-1.84-2.25-.84-.74.56-1.76,1.21-2.47,0a2.43,2.43,0,0,1,.43-2.93C110.12,50.59,116.64,47.39,121.66,47.45Z"/><path class="cls-8" d="M66.46,101.66c-5.06-1.45-11-.9-14.94-5.72-.52-.65-1.32-1.26-1.47-2-.23-1.17-1.82-2.61-.29-3.55s2.18.89,2.91,1.82c3.48,4.42,8.25,3.68,12.86,3.12a18.19,18.19,0,0,0,5.38-2c1.26-.61,2.22-.72,3.18.4a2.73,2.73,0,0,1,.15,3.62C72.44,100.15,69.66,101.08,66.46,101.66Z"/><path class="cls-8" d="M60.76,80.9c2.65,0,4.66,2.52,4.69,5.81,0,2.66-2.24,5.57-4.23,5.42s-5.8-5.48-5.55-7.78C56,81.34,58.49,81.21,60.76,80.9Z"/></svg>