<svg xmlns="http://www.w3.org/2000/svg" viewBox="0 0 186.22 58.54"><defs><style>.cls-1{fill:#fff;}</style></defs><title>pga_rect_light</title><g id="Layer_2" data-name="Layer 2"><g id="Layer_1-2" data-name="Layer 1"><path class="cls-1" d="M79,33.65a3.29,3.29,0,0,1-1.58.37,3.2,3.2,0,0,1-1.53-.36,3.74,3.74,0,0,1-1.15-.94A4,4,0,0,1,74,31.41a4.68,4.68,0,0,1-.25-1.47A4.9,4.9,0,0,1,74,28.45a4.09,4.09,0,0,1,1.88-2.28,3.21,3.21,0,0,1,1.53-.37,3.29,3.29,0,0,1,1.58.36,3.41,3.41,0,0,1,1.12.94,4.36,4.36,0,0,1,.66,1.31A5,5,0,0,1,81,29.88a5.07,5.07,0,0,1-.22,1.49,4.36,4.36,0,0,1-.66,1.33,3.7,3.7,0,0,1-1.12.95m3.56-8.57a5.87,5.87,0,0,0-4.43-2,5.81,5.81,0,0,0-1.57.2,6.79,6.79,0,0,0-1.25.51,4.14,4.14,0,0,0-.94.71,3.45,3.45,0,0,0-.59.75h0V23.49H70.62V42.81h3.22V34.69a4.27,4.27,0,0,0,1.71,1.51,5.53,5.53,0,0,0,2.47.56,5.84,5.84,0,0,0,4.55-2,6.42,6.42,0,0,0,1.23-2.17,8.1,8.1,0,0,0,.44-2.68,7.68,7.68,0,0,0-.45-2.65,6.56,6.56,0,0,0-1.26-2.15"/><path class="cls-1" d="M89.85,32.61a4.24,4.24,0,0,1-.7-1.29,4.34,4.34,0,0,1-.25-1.48,4.8,4.8,0,0,1,.25-1.58,3.86,3.86,0,0,1,.7-1.28A3.25,3.25,0,0,1,91,26.12a3.5,3.5,0,0,1,1.52-.32,3.58,3.58,0,0,1,1.53.32,3.31,3.31,0,0,1,1.15.87,3.92,3.92,0,0,1,.74,1.29,4.56,4.56,0,0,1,.26,1.56,4.3,4.3,0,0,1-.26,1.52,3.77,3.77,0,0,1-.74,1.28,3.45,3.45,0,0,1-2.71,1.22A3.3,3.3,0,0,1,91,33.52a3.52,3.52,0,0,1-1.11-.91m6.31-7.21a4.27,4.27,0,0,0-1.83-1.72,5.6,5.6,0,0,0-2.51-.57,6,6,0,0,0-2.57.54,6.14,6.14,0,0,0-2,1.45,6.42,6.42,0,0,0-1.23,2.15,7.89,7.89,0,0,0-.44,2.63,7.48,7.48,0,0,0,.45,2.6,6.73,6.73,0,0,0,1.25,2.13,6,6,0,0,0,2,1.46,6.21,6.21,0,0,0,2.59.53,5.6,5.6,0,0,0,2.38-.5A4.28,4.28,0,0,0,96,34.66h0v1.41a7.49,7.49,0,0,1-.2,1.77,3.75,3.75,0,0,1-.65,1.38,3.12,3.12,0,0,1-1.21.91,4.81,4.81,0,0,1-1.89.33A6.11,6.11,0,0,1,89.74,40a6.59,6.59,0,0,1-2.06-1.34l0,0L85.83,41.2a7.58,7.58,0,0,0,1.37.91,9.71,9.71,0,0,0,1.59.67,11.08,11.08,0,0,0,1.68.4,10.44,10.44,0,0,0,1.62.14,8.5,8.5,0,0,0,3.18-.54,6,6,0,0,0,2.23-1.52,6.28,6.28,0,0,0,1.3-2.39,11.07,11.07,0,0,0,.42-3.15V23.49H96.16Z"/><path class="cls-1" d="M104.58,33.38a1.56,1.56,0,0,1,.27-1.85A3.12,3.12,0,0,1,106,30.9a7.13,7.13,0,0,1,1.54-.3c.55,0,1.09-.06,1.59-.06h.67V31a3.34,3.34,0,0,1-.83,2.39,3.25,3.25,0,0,1-2.43.87,4.13,4.13,0,0,1-.78-.08,2.27,2.27,0,0,1-.7-.27,1.53,1.53,0,0,1-.5-.48m7.17-8.52A4.57,4.57,0,0,0,110,23.6a7,7,0,0,0-2.78-.49,8.38,8.38,0,0,0-2.86.51,6.77,6.77,0,0,0-2.49,1.58l1.65,2,0,0a5,5,0,0,1,1.51-1,4.46,4.46,0,0,1,1.9-.42,3.52,3.52,0,0,1,2,.57,2,2,0,0,1,.83,1.74v.29c-1,0-2,.05-3,.15a11.1,11.1,0,0,0-2.79.6A5.16,5.16,0,0,0,102,30.37a3.25,3.25,0,0,0-.81,2.32,3.68,3.68,0,0,0,.46,1.91,4.06,4.06,0,0,0,1.16,1.24,4.76,4.76,0,0,0,1.53.67,7.07,7.07,0,0,0,1.6.2,5.08,5.08,0,0,0,2.4-.55,3.42,3.42,0,0,0,1.5-1.4h0v1.63h3V28.55a7.65,7.65,0,0,0-.25-1.94,4.66,4.66,0,0,0-.88-1.75"/><path class="cls-1" d="M126,24.73a4.22,4.22,0,0,0-1.46-1.17,4.61,4.61,0,0,0-2.12-.45,4.17,4.17,0,0,0-2.47.74,3.94,3.94,0,0,0-1.43,1.69h0V23.49h-3.06v12.9h3.22V29.3a4.46,4.46,0,0,1,.18-1.26,3.62,3.62,0,0,1,.53-1.1,2.69,2.69,0,0,1,.89-.78,2.66,2.66,0,0,1,1.3-.3,2,2,0,0,1,1.19.31,2.22,2.22,0,0,1,.71.81,3.16,3.16,0,0,1,.34,1.09,9.72,9.72,0,0,1,.08,1.17v7.15h3.21V28.33a7.42,7.42,0,0,0-.26-1.93,4.94,4.94,0,0,0-.83-1.67"/><path class="cls-1" d="M132.28,33.38a1.56,1.56,0,0,1,.27-1.85,3.12,3.12,0,0,1,1.17-.63,7,7,0,0,1,1.53-.3c.56,0,1.1-.06,1.6-.06h.67V31a3.34,3.34,0,0,1-.83,2.39,3.25,3.25,0,0,1-2.43.87,4.13,4.13,0,0,1-.78-.08,2.27,2.27,0,0,1-.7-.27,1.53,1.53,0,0,1-.5-.48m7.16-8.52a4.53,4.53,0,0,0-1.72-1.26,7,7,0,0,0-2.78-.49,8.38,8.38,0,0,0-2.86.51,6.77,6.77,0,0,0-2.49,1.58l1.65,2,0,0a5,5,0,0,1,1.51-1,4.46,4.46,0,0,1,1.9-.42,3.52,3.52,0,0,1,2,.57,2,2,0,0,1,.83,1.74v.29c-1,0-2,.05-3,.15a11.28,11.28,0,0,0-2.8.6,5.23,5.23,0,0,0-2.07,1.32,3.29,3.29,0,0,0-.8,2.32,3.68,3.68,0,0,0,.46,1.91,4.06,4.06,0,0,0,1.16,1.24,4.76,4.76,0,0,0,1.53.67,7,7,0,0,0,1.6.2,5.08,5.08,0,0,0,2.4-.55,3.42,3.42,0,0,0,1.5-1.4h0v1.63h3V28.55a7.65,7.65,0,0,0-.25-1.94,4.54,4.54,0,0,0-.89-1.75"/><rect class="cls-1" x="143.05" y="16.11" width="3.22" height="20.28"/><path class="cls-1" d="M154.7,32.82l0,0-3.55-9.35h-3.54L153,36.34l-.7,1.8c-.14.34-.27.63-.39.88a2.47,2.47,0,0,1-.41.62,1.44,1.44,0,0,1-.57.37,2.45,2.45,0,0,1-.82.12c-.17,0-.36,0-.56,0a3.61,3.61,0,0,1-.61-.15h0l-.24,2.86a6.32,6.32,0,0,0,.83.15,7.26,7.26,0,0,0,.8,0,6,6,0,0,0,1.81-.24,3.87,3.87,0,0,0,1.31-.72,4.58,4.58,0,0,0,1-1.16,10.48,10.48,0,0,0,.73-1.57l6-15.8-3.36,0Z"/><polygon class="cls-1" points="172.26 26.36 172.26 23.49 161.97 23.49 161.97 26.13 168.39 26.13 161.66 33.52 161.66 36.39 172.57 36.39 172.57 33.7 165.49 33.7 172.26 26.36"/><path class="cls-1" d="M180.07,25.59a3.29,3.29,0,0,1,1.31.25,2.55,2.55,0,0,1,1.45,1.65,3.86,3.86,0,0,1,.17,1.13h-6.37a3.19,3.19,0,0,1,1.07-2.17,3.49,3.49,0,0,1,2.37-.86m5.68,1.46a6.24,6.24,0,0,0-1.27-2.18,5.33,5.33,0,0,0-1.94-1.31,6.5,6.5,0,0,0-2.44-.45,7,7,0,0,0-2.64.5,6.31,6.31,0,0,0-2.13,1.4,6.72,6.72,0,0,0-1.41,2.18,7.54,7.54,0,0,0-.51,2.83,7.44,7.44,0,0,0,.51,2.83A6.06,6.06,0,0,0,175.35,35a6.29,6.29,0,0,0,2.15,1.33,7.42,7.42,0,0,0,2.71.47,6.21,6.21,0,0,0,5.42-2.63L183.5,32.4l0,0a3.76,3.76,0,0,1-1.33,1.21,4.07,4.07,0,0,1-2,.43,3.61,3.61,0,0,1-1.3-.24,3.53,3.53,0,0,1-1.11-.65,3.07,3.07,0,0,1-.79-1,3.31,3.31,0,0,1-.35-1.22l9.56,0a3.22,3.22,0,0,0,0-.43V30.1a9.09,9.09,0,0,0-.47-3.05"/><path class="cls-1" d="M61,2.5a.17.17,0,0,1,.34,0c.15.83.6,2.93.6,2.93A3.51,3.51,0,0,0,63.5,8l2.27,1.14a.17.17,0,0,1,0,.31l-2.28,1.11a3.48,3.48,0,0,0-1.59,2.56s-.48,2.09-.64,2.92a.17.17,0,0,1-.34,0c-.15-.83-.6-2.93-.6-2.93a3.51,3.51,0,0,0-1.55-2.58L56.5,9.4a.17.17,0,0,1,0-.31L58.78,8a3.48,3.48,0,0,0,1.59-2.56s.48-2.09.64-2.92"/><path class="cls-1" d="M46.65,52.18a16.12,16.12,0,0,1-1.19-3.88.39.39,0,0,0-.53-.25,23.21,23.21,0,0,1-6.43,1.67c-.84.09-1.69.19-2.54.27s-1.67.12-2.51.13a8.16,8.16,0,0,1-1.1-.09c-.21,0-.3-.37-.35-.55l0-.15c2.51-.3,5-.62,7.49-1.17,1.1-.25,2.21-.52,3.29-.87.54-.17,1.08-.36,1.6-.57l.79-.34.31-.15a.39.39,0,0,0,.22-.36c0-.47,0-1.45,0-1.73a.2.2,0,0,0-.25-.22c-12.3,3.54-24.06,3.21-29,2.11-1.74-.39-3.14-1.05-3.54-1.78a19.61,19.61,0,0,1-1.27-3.73c-.08-.27-.75-.79-1.06-1a.1.1,0,0,0-.18.06,12.73,12.73,0,0,0,.16,5c.13.55.29,1.1.45,1.59a.19.19,0,0,1-.17.24,24.31,24.31,0,0,0-4.1.7c.4.51.82,1,1.26,1.5a18.11,18.11,0,0,1,7.67.09C21,50.15,24.55,55,26.27,57.87a29.83,29.83,0,0,0,3,.15,28.68,28.68,0,0,0,17.38-5.84"/><path class="cls-1" d="M7.57,29.14c-.24-2.45.51-4.36,1.93-4.49a1.47,1.47,0,0,1,.47,0A4.42,4.42,0,0,0,9.59,27c.17,1.69,1.09,3,2.06,2.89a1.32,1.32,0,0,0,.87-.52c.05,2.2-.86,4-2.17,4.11S7.8,31.59,7.57,29.14M13.29,39c.65.42,1.2,2.47,1.44,3.16a3.44,3.44,0,0,0,2.53,1.74,45.38,45.38,0,0,0,6.58.74c11,.21,17.59-1.59,21.23-2.82.33-.11.88-.3.89-.83l-.1-1.51c0-.47-.14-.9-.7-.66-.25.11-.38.43-.59.6a2.82,2.82,0,0,1-.94.45c-4.21,1.36-13.21,1.8-17.6,1.88a3.71,3.71,0,0,1-3.14-1.33c-1.25-1.33-2.5-3.56-3.42-3.69-5.47-.78-5.55-3.5-5.55-3.5s.21-4.3,0-6.12c-.37-3.87-2.21-5.75-4.12-5.57-1.6.16-3.1,2.87-3.25,5.91,0,0-1,6.59,6.71,11.55"/><path class="cls-1" d="M22.76,26.3a.43.43,0,0,0,.07.62,8.16,8.16,0,0,0,1.26.78,5.7,5.7,0,0,1,1.73,2,9.38,9.38,0,0,0,1.32,1.83.22.22,0,0,0,.36-.24,19.75,19.75,0,0,1-.75-2.11,3.77,3.77,0,0,1,0-2.53c.22-.41.42-.82.6-1.21a.46.46,0,0,0-.27-.63c-.34-.11-.7-.25-1.06-.39s-.69-.16-1.07-1.17c-.27-.75-.45-1.22-.63-1.63a.15.15,0,0,0-.29.05,14.6,14.6,0,0,0,0,1.92c.06,1.08-.12,1.23-.45,1.66a10.79,10.79,0,0,1-.8,1"/><path class="cls-1" d="M33.9,39.77a27.92,27.92,0,0,0,8-1,3.41,3.41,0,0,0,2.71-3,43.56,43.56,0,0,0-.17-5.07,38.17,38.17,0,0,0-1.32-6.53,27.66,27.66,0,0,0-2.85-6.44c-.28-.45-.77-1.77-5.25-.81a.43.43,0,0,0-.33.62c6.63,10.74,1.35,19.07-1.08,21.78a.3.3,0,0,0,.25.5"/><path class="cls-1" d="M31.77,9.77a.23.23,0,0,0,.06-.46A40.35,40.35,0,0,0,23,8.05a26.2,26.2,0,0,0-6,.65c-.71.26-.87,1.57-.87,1.57s5.2,1.4,6.52,3.36a.26.26,0,0,1-.05.34L14,22.08a.08.08,0,0,0,0,.1,9.3,9.3,0,0,1,1.25,4c0,.12,0,.38,0,.38a.12.12,0,0,0,.12.1.19.19,0,0,0,.1-.05s9.45-8.47,9.45-8.47a5.38,5.38,0,0,1,1.47-.93c8.24-3.52,12.34-1.92,12.93-1.66a.08.08,0,0,0,.12,0l.25-.2s-.05-.11-.05-.11L35.94,12a.54.54,0,0,0-.16-.1c-3.91-1.74-10,.44-11,.82a.22.22,0,0,1-.23-.05l-.72-.72a.21.21,0,0,1,0-.33,14.69,14.69,0,0,1,8-1.84"/><path class="cls-1" d="M29.27,1A28.25,28.25,0,1,0,57.51,29.27,28.28,28.28,0,0,0,29.27,1m0,57.52A29.27,29.27,0,1,1,58.54,29.27,29.3,29.3,0,0,1,29.27,58.54"/></g></g></svg>