<?xml version="1.0" encoding="UTF-8"?>
<svg id="Layer_1" data-name="Layer 1" xmlns="http://www.w3.org/2000/svg" xmlns:xlink="http://www.w3.org/1999/xlink" viewBox="0 0 1223 281.28">
  <defs>
    <style>
      .cls-1 {
        fill: none;
      }

      .cls-2 {
        fill: #51b4e5;
      }

      .cls-3 {
        fill: #77c8cd;
      }

      .cls-4 {
        fill: #55aed5;
      }

      .cls-5 {
        fill: #62a786;
      }

      .cls-6 {
        filter: url(#AI_GaussianBlur_11-11);
        isolation: isolate;
      }

      .cls-7 {
        fill: #707070;
      }

      .cls-8 {
        fill: #77c9c8;
      }

      .cls-9 {
        fill: #429d9e;
      }

      .cls-10 {
        clip-path: url(#clippath-1);
      }

      .cls-11 {
        clip-path: url(#clippath-2);
      }

      .cls-12 {
        fill: #59a3b7;
      }

      .cls-13 {
        filter: url(#AI_GaussianBlur_11-10);
      }

      .cls-14 {
        filter: url(#AI_GaussianBlur_11-13);
      }

      .cls-15 {
        filter: url(#AI_GaussianBlur_11-14);
      }

      .cls-16 {
        filter: url(#AI_GaussianBlur_11-12);
      }

      .cls-17 {
        filter: url(#AI_GaussianBlur_11-19);
      }

      .cls-18 {
        filter: url(#AI_GaussianBlur_11-18);
      }

      .cls-19 {
        filter: url(#AI_GaussianBlur_11-17);
      }

      .cls-20 {
        filter: url(#AI_GaussianBlur_11-16);
      }

      .cls-21 {
        filter: url(#AI_GaussianBlur_11-15);
      }

      .cls-22 {
        filter: url(#AI_GaussianBlur_11-20);
      }

      .cls-23 {
        fill: #62a79b;
      }

      .cls-24 {
        fill: #74beae;
      }

      .cls-25 {
        fill: #3d6c85;
      }

      .cls-26 {
        fill: #3e794d;
      }

      .cls-27 {
        fill: #73c5c5;
      }

      .cls-28 {
        filter: url(#AI_GaussianBlur_11);
      }

      .cls-29 {
        fill: #71c0c4;
      }

      .cls-30 {
        filter: url(#AI_GaussianBlur_11-8);
      }

      .cls-31 {
        filter: url(#AI_GaussianBlur_11-9);
      }

      .cls-32 {
        filter: url(#AI_GaussianBlur_11-5);
      }

      .cls-33 {
        filter: url(#AI_GaussianBlur_11-6);
      }

      .cls-34 {
        filter: url(#AI_GaussianBlur_11-7);
      }

      .cls-35 {
        filter: url(#AI_GaussianBlur_11-4);
      }

      .cls-36 {
        filter: url(#AI_GaussianBlur_11-3);
      }

      .cls-37 {
        filter: url(#AI_GaussianBlur_11-2);
      }

      .cls-38 {
        fill: #66b8c9;
      }

      .cls-39 {
        fill: #7ecedd;
      }

      .cls-40 {
        fill: #4fabd7;
      }

      .cls-41 {
        fill: #6db899;
      }

      .cls-42 {
        fill: #58aece;
      }

      .cls-43 {
        clip-path: url(#clippath);
      }

      .cls-44 {
        fill: #72c0c6;
      }

      .cls-45 {
        fill: #7dccdc;
      }
    </style>
    <clipPath id="clippath">
      <rect class="cls-1" width="1223" height="281.28"/>
    </clipPath>
    <clipPath id="clippath-1">
      <path class="cls-1" d="M41.37,189.14c0-21.13,12.91-39.24,31.26-46.89.22,0,.44-.04.64-.12,19.86-8.05,40.73-2.44,55.57,12.31,11.85,11.78,23.64,23.64,35.42,35.51-3.93,4.63-33.63,33.64-36,35.58-10.39,8.49-22.49,14.37-36.12,14.37-28.04,0-50.77-22.73-50.77-50.77M252.72,228.17c-.07-.06-.56-.52-.56-.52l-37.62-37.83c2.22-2.24,35.57-35.87,42.23-42.37,14.23-9.88,32.38-11.65,48.02-5.31.15.06.31.09.48.11,18.37,7.64,31.29,25.76,31.29,46.9,0,28.04-22.73,50.77-50.77,50.77-12.64,0-24.19-4.1-33.07-11.74M151.77,126.7c-8.42-9.06-13.58-21.21-13.58-34.55,0-28.04,22.73-50.77,50.77-50.77s50.77,22.73,50.77,50.77c0,13.24-5.07,25.3-13.38,34.34l-37.05,37.96-37.54-37.75ZM101.93,92.14c0,3.59.23,7.13.65,10.61-4.38-.52-8.8-.7-13.2-.55,0-.02,0-.04,0-.06-46.79,1.46-84.27,39.85-84.27,86.99s38.97,87.04,87.04,87.04c22.95,0,43.54-7.87,59.37-23.4l.04.04,37.72-37.72c.19.19.38.39.58.58,10.83,10.83,21.44,21.91,32.44,32.56,17.72,17.17,38.43,27.95,63.5,27.95,48.07,0,87.04-38.97,87.04-87.04s-37.48-85.53-84.27-86.99c0,.02,0,.03,0,.05-4.4-.14-8.82.05-13.2.57.42-3.48.64-7.03.64-10.62,0-48.07-38.97-87.04-87.03-87.04s-87.04,38.97-87.04,87.04"/>
    </clipPath>
    <filter id="AI_GaussianBlur_11">
      <feGaussianBlur stdDeviation="11"/>
    </filter>
    <filter id="AI_GaussianBlur_11-2" data-name="AI_GaussianBlur_11">
      <feGaussianBlur stdDeviation="11"/>
    </filter>
    <filter id="AI_GaussianBlur_11-3" data-name="AI_GaussianBlur_11">
      <feGaussianBlur stdDeviation="11"/>
    </filter>
    <filter id="AI_GaussianBlur_11-4" data-name="AI_GaussianBlur_11">
      <feGaussianBlur stdDeviation="11"/>
    </filter>
    <filter id="AI_GaussianBlur_11-5" data-name="AI_GaussianBlur_11">
      <feGaussianBlur stdDeviation="11"/>
    </filter>
    <filter id="AI_GaussianBlur_11-6" data-name="AI_GaussianBlur_11">
      <feGaussianBlur stdDeviation="11"/>
    </filter>
    <filter id="AI_GaussianBlur_11-7" data-name="AI_GaussianBlur_11">
      <feGaussianBlur stdDeviation="11"/>
    </filter>
    <filter id="AI_GaussianBlur_11-8" data-name="AI_GaussianBlur_11">
      <feGaussianBlur stdDeviation="11"/>
    </filter>
    <filter id="AI_GaussianBlur_11-9" data-name="AI_GaussianBlur_11">
      <feGaussianBlur stdDeviation="11"/>
    </filter>
    <filter id="AI_GaussianBlur_11-10" data-name="AI_GaussianBlur_11">
      <feGaussianBlur stdDeviation="11"/>
    </filter>
    <filter id="AI_GaussianBlur_11-11" data-name="AI_GaussianBlur_11">
      <feGaussianBlur stdDeviation="11"/>
    </filter>
    <filter id="AI_GaussianBlur_11-12" data-name="AI_GaussianBlur_11">
      <feGaussianBlur stdDeviation="11"/>
    </filter>
    <filter id="AI_GaussianBlur_11-13" data-name="AI_GaussianBlur_11">
      <feGaussianBlur stdDeviation="11"/>
    </filter>
    <filter id="AI_GaussianBlur_11-14" data-name="AI_GaussianBlur_11">
      <feGaussianBlur stdDeviation="11"/>
    </filter>
    <filter id="AI_GaussianBlur_11-15" data-name="AI_GaussianBlur_11">
      <feGaussianBlur stdDeviation="11"/>
    </filter>
    <filter id="AI_GaussianBlur_11-16" data-name="AI_GaussianBlur_11">
      <feGaussianBlur stdDeviation="11"/>
    </filter>
    <filter id="AI_GaussianBlur_11-17" data-name="AI_GaussianBlur_11">
      <feGaussianBlur stdDeviation="11"/>
    </filter>
    <filter id="AI_GaussianBlur_11-18" data-name="AI_GaussianBlur_11">
      <feGaussianBlur stdDeviation="11"/>
    </filter>
    <filter id="AI_GaussianBlur_11-19" data-name="AI_GaussianBlur_11">
      <feGaussianBlur stdDeviation="11"/>
    </filter>
    <filter id="AI_GaussianBlur_11-20" data-name="AI_GaussianBlur_11">
      <feGaussianBlur stdDeviation="11"/>
    </filter>
    <clipPath id="clippath-2">
      <rect class="cls-1" width="1223" height="281.28"/>
    </clipPath>
  </defs>
  <polygon class="cls-7" points="422.98 43.77 467.8 43.77 467.8 55.85 437.62 55.85 437.62 66.43 463.5 66.43 463.5 77.85 437.62 77.85 437.62 90.5 468.3 90.5 468.3 102.91 422.98 102.91 422.98 43.77"/>
  <g class="cls-43">
    <path class="cls-7" d="M473.69,43.73h25.23c16.38,0,27.38,11.83,27.38,29.94,0,10.42-3.64,18.77-10.26,23.82-4.63,3.47-10.59,5.38-18.03,5.38h-24.32v-59.14ZM496.93,90.54c9.59,0,14.56-6.04,14.56-16.87s-5.21-17.7-14.39-17.7h-8.77v34.57h8.6Z"/>
    <path class="cls-7" d="M530.43,43.77h28.53c6.12,0,10.67,1.49,13.81,4.05,3.39,2.81,5.13,6.62,5.13,11.33,0,5.87-3.06,9.59-8.27,11.58v.25c6.45,1.98,10.59,7.44,10.59,14.47,0,5.96-2.15,10.26-6.04,13.23-3.47,2.73-8.35,4.22-14.56,4.22h-29.2v-59.14ZM556.81,67.18c4.22,0,7.11-2.07,7.11-5.96s-2.73-5.87-7.03-5.87h-11.99v11.83h11.91ZM557.97,91.16c4.8,0,7.77-2.73,7.77-6.95,0-4.71-3.47-7.11-7.94-7.11h-12.9v14.06h13.07Z"/>
  </g>
  <g class="cls-10">
    <g class="cls-28">
      <ellipse class="cls-23" cx="76.95" cy="181.56" rx="78.95" ry="79.11"/>
    </g>
    <g class="cls-37">
      <ellipse class="cls-3" cx="137.53" cy="168.65" rx="78.95" ry="79.11"/>
    </g>
    <g class="cls-36">
      <ellipse class="cls-38" cx="192.12" cy="226.86" rx="78.95" ry="79.11"/>
    </g>
    <g class="cls-35">
      <ellipse class="cls-42" cx="252.86" cy="279.03" rx="78.95" ry="79.11"/>
    </g>
    <g class="cls-32">
      <ellipse class="cls-4" cx="345.64" cy="272.84" rx="78.95" ry="79.11"/>
    </g>
    <g class="cls-33">
      <ellipse class="cls-40" cx="347.21" cy="232.86" rx="78.95" ry="79.11"/>
    </g>
    <g class="cls-34">
      <ellipse class="cls-12" cx="366.69" cy="178.3" rx="78.95" ry="79.11"/>
    </g>
    <g class="cls-30">
      <ellipse class="cls-2" cx="303.49" cy="164.45" rx="78.95" ry="79.11"/>
    </g>
    <g class="cls-31">
      <ellipse class="cls-44" cx="243.83" cy="153.75" rx="78.95" ry="79.11"/>
    </g>
    <g class="cls-13">
      <ellipse class="cls-25" cx="327.16" cy="90.2" rx="78.95" ry="79.11"/>
    </g>
    <g class="cls-6">
      <ellipse class="cls-29" cx="163.74" cy="-16.28" rx="73.5" ry="73.65"/>
    </g>
    <g class="cls-16">
      <ellipse class="cls-45" cx="78.11" cy="7.7" rx="65.28" ry="65.41"/>
    </g>
    <g class="cls-14">
      <ellipse class="cls-39" cx="119.18" cy="42.71" rx="63.05" ry="63.18"/>
    </g>
    <g class="cls-15">
      <ellipse class="cls-26" cx="14.58" cy="102.91" rx="78.95" ry="79.11"/>
    </g>
    <g class="cls-21">
      <ellipse class="cls-5" cx="-44.24" cy="172.38" rx="78.95" ry="79.11"/>
    </g>
    <g class="cls-20">
      <ellipse class="cls-24" cx="97.44" cy="256.19" rx="78.95" ry="79.11"/>
    </g>
    <g class="cls-19">
      <ellipse class="cls-41" cx="-44.24" cy="272.84" rx="78.95" ry="79.11"/>
    </g>
    <g class="cls-18">
      <ellipse class="cls-27" cx="217.61" cy="66.54" rx="71.09" ry="71.24"/>
    </g>
    <g class="cls-17">
      <ellipse class="cls-27" cx="291.02" cy="2.92" rx="71.09" ry="71.24"/>
    </g>
    <g class="cls-22">
      <ellipse class="cls-8" cx="251.49" cy="-64.78" rx="71.09" ry="71.24"/>
    </g>
  </g>
  <g class="cls-11">
    <path class="cls-9" d="M423.36,141.68h38.46c10.68,0,17.79,3.01,22.99,8.49,4.38,4.65,6.84,10.81,6.84,18.89,0,18.07-10.54,27.92-31.07,27.92h-28.06v42.57h-9.17v-97.86ZM459.9,189.17c15.88,0,22.45-7.53,22.45-19.85s-7.53-19.57-21.63-19.57h-28.19v39.42h27.37Z"/>
    <path class="cls-7" d="M497.32,190.54c0-29.15,17.79-50.91,45.44-50.91s45.71,21.76,45.71,50.91-17.93,50.91-45.71,50.91-45.44-21.76-45.44-50.91M578.89,190.54c0-23.68-12.59-42.7-36.13-42.7s-35.86,19.02-35.86,42.7,12.46,42.7,35.86,42.7,36.13-19.02,36.13-42.7"/>
    <path class="cls-7" d="M595.01,207.79h9.17c.96,16.56,12.18,25.87,30.52,25.87,14.37,0,25.05-7.25,25.05-20.53s-9.17-17.11-30.11-21.35c-18.07-3.56-30.8-9.03-30.8-26.14,0-15.6,13.14-25.87,32.71-25.87,21.76,0,32.71,11.77,34.49,28.61h-8.9c-1.64-13.82-11.5-20.94-25.46-20.94-14.92,0-23.95,7.12-23.95,17.93,0,11.63,9.03,15.19,26.55,18.48,19.02,3.69,34.76,8.35,34.76,28.88,0,17.38-13.96,28.6-34.49,28.6-25.73,0-38.46-14.51-39.55-33.53"/>
    <polygon class="cls-7" points="703.89 149.89 670.77 149.89 670.77 141.68 746.05 141.68 746.05 149.89 713.06 149.89 713.06 239.54 703.89 239.54 703.89 149.89"/>
    <path class="cls-7" d="M842.17,141.68h43.66c17.66,0,27.78,10.13,27.78,26.42,0,12.04-5.2,19.98-16.42,23.54v.41c10.13,3.42,13.41,10.81,14.1,26.01.68,15.74,2.46,19.71,4.24,20.94v.55h-9.85c-2.19-1.5-2.74-5.2-3.56-21.9-.82-16.97-6.71-21.76-20.94-21.76h-29.84v43.66h-9.17v-97.86ZM882.68,188.08c14.23,0,21.49-6.98,21.49-19.16s-5.48-19.16-20.26-19.16h-32.57v38.32h31.34Z"/>
    <polygon class="cls-7" points="926.55 141.68 993.07 141.68 993.07 149.75 935.72 149.75 935.72 184.93 988.28 184.93 988.28 192.87 935.72 192.87 935.72 231.05 994.57 231.05 994.57 239.54 926.55 239.54 926.55 141.68"/>
    <path class="cls-7" d="M1001.07,207.79h9.17c.96,16.56,12.18,25.87,30.52,25.87,14.37,0,25.05-7.25,25.05-20.53s-9.17-17.11-30.11-21.35c-18.07-3.56-30.8-9.03-30.8-26.14,0-15.6,13.14-25.87,32.71-25.87,21.76,0,32.71,11.77,34.49,28.61h-8.9c-1.64-13.82-11.5-20.94-25.45-20.94-14.92,0-23.95,7.12-23.95,17.93,0,11.63,9.03,15.19,26.55,18.48,19.02,3.69,34.76,8.35,34.76,28.88,0,17.38-13.96,28.6-34.49,28.6-25.73,0-38.46-14.51-39.55-33.53"/>
    <path class="cls-9" d="M1091.59,239.76c-2.01-.01-2.99-2.45-1.56-3.86l95.95-94.03c3.34-3.27,8.61-3.75,12.54-.89,2.56,1.86,3.95,4.95,3.95,8.12v88.37c0,1.24-1.01,2.25-2.25,2.25h-4.15c-1.24,0-2.25-1.01-2.25-2.25v-88.67c0-.46-.22-.79-.64-.96-.42-.18-.8-.11-1.14.22l-92.97,91.1c-.43.42-1,.65-1.59.64l-5.89-.04Z"/>
    <path class="cls-9" d="M1215.26,139.49h6.09c.91,0,1.65.74,1.65,1.65v96.93c0,.91-.74,1.65-1.65,1.65h-6.09c-.91,0-1.65-.74-1.65-1.65v-96.93c0-.91.74-1.65,1.65-1.65"/>
    <path class="cls-9" d="M754.1,189.39c.41-23.09,11.94-41.69,36.66-41.69,14.92,0,26.14,7.66,29.15,22.31h9.44c-3.56-19.84-18.48-30.25-38.6-30.25-29.26,0-45.75,21.39-46.24,49.63h9.58Z"/>
    <path class="cls-9" d="M790.35,189.31v8.08h31.48v3.42c0,16.97-9.72,32.57-32.3,32.57-20.98,0-32.95-15.14-35.09-35.78h-9.61c2.39,25.69,18.27,43.86,44.57,43.86,13.55,0,21.45-2.53,29.62-11.02,14.49-15.06,11.85-41.13,11.85-41.13h-40.51Z"/>
    <path class="cls-7" d="M1088.76,123.9c0,5.14-4.04,9.18-9.29,9.18s-9.34-4.04-9.34-9.18,4.15-9.07,9.34-9.07,9.29,4.04,9.29,9.07M1072.45,123.9c0,4.04,2.99,7.24,7.08,7.24s6.91-3.21,6.91-7.19-2.93-7.3-6.97-7.3-7.02,3.26-7.02,7.24M1078.03,128.66h-2.1v-9.07c.83-.17,1.99-.28,3.48-.28,1.71,0,2.49.28,3.15.66.5.39.88,1.11.88,1.99,0,1-.77,1.77-1.88,2.1v.11c.89.33,1.38,1,1.66,2.21.28,1.38.44,1.94.66,2.27h-2.27c-.28-.33-.44-1.16-.72-2.21-.17-1-.72-1.44-1.88-1.44h-1v3.65ZM1078.09,123.51h1c1.16,0,2.1-.39,2.1-1.33,0-.83-.61-1.38-1.93-1.38-.55,0-.94.05-1.16.11v2.6Z"/>
  </g>
  <rect class="cls-1" width="1223" height="281.28"/>
</svg>