<?xml version="1.0" encoding="UTF-8" standalone="no"?>
<svg xmlns:dc="http://purl.org/dc/elements/1.1/" xmlns:cc="http://creativecommons.org/ns#" xmlns:rdf="http://www.w3.org/1999/02/22-rdf-syntax-ns#" xmlns:svg="http://www.w3.org/2000/svg" xmlns="http://www.w3.org/2000/svg" xmlns:sodipodi="http://sodipodi.sourceforge.net/DTD/sodipodi-0.dtd" xmlns:inkscape="http://www.inkscape.org/namespaces/inkscape" width="275" height="150" viewBox="0 0 72.760414 39.687502" version="1.1" id="svg23636" inkscape:version="1.0.2 (e86c870879, 2021-01-15)" sodipodi:docname="intevation-logo.svg" inkscape:export-xdpi="288" inkscape:export-ydpi="288">
  <defs id="defs23630"/>
  <sodipodi:namedview id="base" pagecolor="#ffffff" bordercolor="#666666" borderopacity="1.0" inkscape:pageopacity="0.0" inkscape:pageshadow="2" inkscape:zoom="2.8284271" inkscape:cx="114.94213" inkscape:cy="95.503161" inkscape:document-units="mm" inkscape:current-layer="layer1" showgrid="false" units="px" inkscape:window-width="1920" inkscape:window-height="1051" inkscape:window-x="0" inkscape:window-y="0" inkscape:window-maximized="1" showguides="true" inkscape:guide-bbox="true" inkscape:document-rotation="0">
    <sodipodi:guide position="210.11398,9.5007275" orientation="1,0" id="guide5545" inkscape:locked="false"/>
    <sodipodi:guide position="63.240856,9.4339258" orientation="1,0" id="guide5547" inkscape:locked="false"/>
  </sodipodi:namedview>
  <metadata id="metadata23633">
    <rdf:RDF>
      <rdf:Description>
    <!-- Ersteller, Autor -->
      <dc:creator>martin.pohlmann@intevation.de</dc:creator>
    <!-- Herausgeber -->
      <dc:publisher>Intevation GmbH</dc:publisher>
    <!-- Schlagwort, Schlüsselworte -->
      <dc:subject>Intevation Logo</dc:subject>
    <!-- Übergeordnete Quelle -->
      <dc:source>https://intevation.de</dc:source>
    <!-- Rechte, Copyright -->
      <dc:rights>Copyright 2020 Intevation GmbH</dc:rights>
    <!-- Titel des Dokuments -->
      <dc:title>intevation-logo</dc:title>
    <!-- Datum der Erstellung -->
      <dc:date>2021-03-26</dc:date>
    <!-- Verwendete Sprache -->
      <dc:language>de</dc:language>
    </rdf:Description>
    </rdf:RDF>
  </metadata>
  <g inkscape:label="Ebene 1" inkscape:groupmode="layer" id="layer1" transform="translate(0,-275.83332)">
    <g id="g4631" transform="matrix(0.99896608,0,0,0.99896608,18.883623,-2.5026237)">
      <g id="g4709" transform="translate(8.7133799e-8,-2.3570975)">
        <g transform="matrix(0.13009265,0,0,-0.13009265,0.80870466,320.32102)" id="g9516"/>
        <g id="g5413-7-4-5-2" transform="matrix(0.85935486,0,0,0.85935486,-114.297,168.64474)">
          <g id="g914" transform="translate(-3.7113584e-7,-3.6681419)">
            <g id="g8472-4-4-7" transform="matrix(1.5347127,0,0,1.5347127,-83.290507,-45.632349)">
              <path inkscape:connector-curvature="0" id="path11456-86-9-3-4-4-8-81-4-3-5-5-7-7-3-3-7-9-3" style="fill:#000000;fill-opacity:1;stroke:none;stroke-width:0.425785;stroke-linecap:round;stroke-linejoin:round;stroke-miterlimit:4;stroke-dasharray:none;stroke-opacity:0.988235" d="m 128.41011,128.20449 c 7.22659,3.33369 6.53275,7.49629 0.53514,8.79595 l 0.93461,2.38818 c 5.28164,-1.60207 14.41777,-3.42613 15.79421,6.49421 l 3.47338,-0.14293 c 4.84067,-3.9922 12.92587,-7.05212 19.20701,-2.46244 l 3.47002,-0.44487 c -0.0972,-3.32982 5.54959,-4.71904 8.03412,-3.74306 l 0.10381,-2.54984 c -7.2072,-3.37554 -6.48777,-7.52423 -0.48275,-8.78911 l -0.98676,-2.39451 c -5.28166,1.60207 -14.38154,3.39934 -15.75798,-6.52102 l -3.45604,0.14902 c -4.84067,3.99217 -12.92585,7.05212 -19.20701,2.46241 l -3.47002,0.44485 c 0.0972,3.32981 -5.60485,4.72485 -8.08936,3.74887 z" sodipodi:nodetypes="ccccccccccccccccc"/>
              <g transform="matrix(1.0068193,-0.12896247,0.12896247,1.0068193,-341.39892,35.519003)" id="g8239-2-4-4-7-7-0-6-5-1-9">
                <path sodipodi:nodetypes="cccccc" inkscape:connector-curvature="0" id="path11456-86-9-35-9-3-0-6-4-2-0-5-5-5-1-3-7-7" d="m 456.28858,144.23286 c -0.28867,2.92652 -4.92061,3.93949 -8.37289,2.66596 l 28.79147,17.47185 2.07178,-20.11872 c -5.22439,3.29093 -13.48725,5.24644 -19.0438,-0.0195 z" style="fill:#0d8fbf;fill-opacity:0.720755;stroke:none;stroke-width:0.419;stroke-linecap:round;stroke-linejoin:round;stroke-miterlimit:4;stroke-dasharray:none;stroke-opacity:0.964706"/>
                <path sodipodi:nodetypes="ccccccccccsc" inkscape:connector-curvature="0" id="path11456-86-9-3-3-6-6-7-3-6-0-7-8-8-2-8-5-7" d="m 447.91446,146.88371 -0.42101,2.49299 c 6.22631,3.95164 5.50559,7.70038 0.3747,8.52817 -0.002,2.6e-4 -0.003,2.4e-4 -0.005,5.3e-4 l -0.94772,0.13363 0.61437,2.4507 1.13433,-0.1757 0.007,-0.001 c 5.41861,-0.76302 13.38463,-0.68653 13.4798,8.49974 l 11.78833,-17.34751 c -7.60015,-1.33797 -22.81232,-3.97868 -22.81232,-3.97868 -1.08955,-0.0106 -2.32203,-0.0547 -3.21248,-0.60287 z" style="fill:#295c9e;fill-opacity:0.645283;stroke:none;stroke-width:0.419;stroke-linecap:round;stroke-linejoin:round;stroke-miterlimit:4;stroke-dasharray:none;stroke-opacity:0.964706"/>
                <path sodipodi:nodetypes="cccccccccc" inkscape:connector-curvature="0" id="path11456-86-9-5-9-4-4-7-6-88-9-8-2-9-3-9-7-5-9" d="m 467.54355,150.15209 -5.39262,18.66068 3.41206,0.29508 c 5.22441,-3.29092 13.52066,-5.26807 19.0772,-0.002 l 3.44657,-7.7e-4 c 0.30525,-3.09463 5.43749,-3.84082 7.93503,-2.83038 0,2.2e-4 0.003,1.6e-4 0.003,5.3e-4 l 0.38137,0.17777 0.42167,-2.47789 z" style="opacity:1;fill:#00bbff;fill-opacity:0.739623;stroke:none;stroke-width:0.419;stroke-linecap:round;stroke-linejoin:round;stroke-miterlimit:4;stroke-dasharray:none;stroke-opacity:0.964706"/>
                <path sodipodi:nodetypes="cccccccc" inkscape:connector-curvature="0" id="path11456-86-9-3-8-8-0-9-6-2-3-1-2-6-5-3-2-4-53" d="m 478.81233,144.23034 -7.41556,10.94211 -2.85964,4.2305 28.28963,4.57155 c -6.61234,-4.19665 -5.39128,-8.1659 0.62838,-8.64909 l -0.66455,-2.46341 c -5.35575,0.90279 -14.48028,1.51055 -14.58238,-8.3447 z" style="opacity:1;fill:#0375a5;fill-opacity:0.716981;stroke:none;stroke-width:0.419;stroke-linecap:round;stroke-linejoin:round;stroke-miterlimit:4;stroke-dasharray:none;stroke-opacity:0.964706"/>
              </g>
              <path inkscape:connector-curvature="0" id="path11456-86-9-35-5-6-7-0-3-8-5-9-7-1-2-1-3" style="fill:none;stroke:#285b9e;stroke-width:0.425785;stroke-linecap:round;stroke-linejoin:round;stroke-miterlimit:4;stroke-dasharray:none;stroke-opacity:1" d="m 140.07187,121.44648 c 6.28116,4.5897 14.36634,1.52976 19.20701,-2.46241" sodipodi:nodetypes="cc"/>
              <path inkscape:connector-curvature="0" id="path11456-86-9-5-8-3-7-2-5-4-2-5-1-9-7-8-3" style="fill:none;stroke:#285b9e;stroke-width:0.425785;stroke-linecap:round;stroke-linejoin:round;stroke-miterlimit:4;stroke-dasharray:none;stroke-opacity:1" d="m 128.51249,125.6402 c 2.48451,0.97598 8.18657,-0.41906 8.08936,-3.74887" sodipodi:nodetypes="cc"/>
              <path inkscape:connector-curvature="0" id="path11456-86-9-3-4-4-8-81-4-3-5-5-7-4-9-8-8" style="fill:none;stroke:#285b9e;stroke-width:0.425785;stroke-linecap:round;stroke-linejoin:round;stroke-miterlimit:4;stroke-dasharray:none;stroke-opacity:1" d="m 128.41011,128.20449 c 7.22659,3.33369 6.53275,7.49628 0.53515,8.79594" sodipodi:nodetypes="cc"/>
              <path inkscape:connector-curvature="0" id="path11456-86-9-22-9-7-9-7-1-4-5-2-0-7-6-3-5" style="fill:none;stroke:#285b9e;stroke-width:0.425785;stroke-linecap:round;stroke-linejoin:round;stroke-miterlimit:4;stroke-dasharray:none;stroke-opacity:1" d="m 145.69143,145.88889 c -1.37644,-9.92034 -10.52993,-8.10235 -15.81156,-6.50028" sodipodi:nodetypes="cc"/>
              <path inkscape:connector-curvature="0" id="path11456-86-9-35-7-51-9-6-4-7-5-7-1-6-8-6-5-8" style="fill:none;stroke:#285b9e;stroke-width:0.425785;stroke-linecap:round;stroke-linejoin:round;stroke-miterlimit:4;stroke-dasharray:none;stroke-opacity:1" d="m 168.35446,143.27746 c -6.28114,-4.58968 -14.36634,-1.52977 -19.207,2.46243" sodipodi:nodetypes="cc"/>
              <path inkscape:connector-curvature="0" id="path11456-86-9-5-9-6-6-7-4-2-9-3-5-0-4-4-2-9" style="fill:none;stroke:#285b9e;stroke-width:0.425785;stroke-linecap:round;stroke-linejoin:round;stroke-miterlimit:4;stroke-dasharray:none;stroke-opacity:1" d="m 179.91386,139.08373 c -2.48454,-0.97598 -8.18657,0.41904 -8.08938,3.74886" sodipodi:nodetypes="cc"/>
              <path inkscape:connector-curvature="0" id="path11456-86-9-3-8-87-6-0-8-2-7-1-9-4-5-2-2-60" style="fill:none;stroke:#285b9e;stroke-width:0.425785;stroke-linecap:round;stroke-linejoin:round;stroke-miterlimit:4;stroke-dasharray:none;stroke-opacity:1" d="m 180.01893,136.53147 c -7.20719,-3.37554 -6.48924,-7.53401 -0.48421,-8.79889" sodipodi:nodetypes="cc"/>
              <path inkscape:connector-curvature="0" id="path11456-86-9-1-1-6-3-6-3-1-9-1-0-1-6-4" style="fill:none;stroke:#285b9e;stroke-width:0.425785;stroke-linecap:round;stroke-linejoin:round;stroke-miterlimit:4;stroke-dasharray:none;stroke-opacity:1" d="m 162.73492,118.83505 c 1.37644,9.92036 10.52991,8.10237 15.81157,6.5003" sodipodi:nodetypes="cc"/>
            </g>
          </g>
        </g>
      </g>
    </g>
  </g>
</svg>