<svg width="243" height="43" style="" viewBox="0 0 243 43" fill="none" xmlns="http://www.w3.org/2000/svg">
	<g clip-path="url(#Frame_clip0-13-27)">
		<path
			d="M81.443 12.0667V34.5577H85.353V19.0732H85.562L91.777 34.4918H94.699L100.914 19.1061H101.123V34.5577H105.033V12.0667H100.047L93.37 28.3639H93.106L86.429 12.0667H81.443ZM114.148 34.8981C116.794 34.8981 118.376 33.6571 119.1 32.2405H119.232V34.5577H123.054V23.2683C123.054 18.8096 119.419 17.4698 116.201 17.4698C112.654 17.4698 109.93 19.0512 109.052 22.1262L112.764 22.6533C113.159 21.5002 114.279 20.5118 116.223 20.5118C118.068 20.5118 119.078 21.4563 119.078 23.1145V23.1804C119.078 24.3225 117.881 24.3774 114.905 24.6959C111.633 25.0473 108.503 26.0247 108.503 29.8245C108.503 33.141 110.93 34.8981 114.148 34.8981ZM115.18 31.9769C113.522 31.9769 112.336 31.2192 112.336 29.7586C112.336 28.2321 113.664 27.5951 115.443 27.3426C116.487 27.1998 118.573 26.9362 119.089 26.5189V28.5066C119.089 30.3845 117.574 31.9769 115.18 31.9769ZM135.474 17.6895H132.147V13.6481H128.171V17.6895H125.777V20.7644H128.171V30.1429C128.149 33.3167 130.456 34.8761 133.443 34.7883C134.574 34.7553 135.354 34.5357 135.782 34.3929L135.112 31.2851C134.892 31.34 134.442 31.4388 133.948 31.4388C132.949 31.4388 132.147 31.0874 132.147 29.484V20.7644H135.474V17.6895ZM146.086 34.8871C150.017 34.8871 152.719 32.9653 153.422 30.0331L149.71 29.6158C149.172 31.0435 147.854 31.7902 146.141 31.7902C143.571 31.7902 141.869 30.099 141.836 27.2108H153.586V25.9918C153.586 20.0725 150.028 17.4698 145.877 17.4698C141.045 17.4698 137.893 21.017 137.893 26.2224C137.893 31.5157 141.001 34.8871 146.086 34.8871ZM141.847 24.5312C141.967 22.3787 143.56 20.5667 145.932 20.5667C148.216 20.5667 149.754 22.236 149.776 24.5312H141.847ZM156.949 34.5577H160.925V24.641C160.925 22.4995 162.539 20.984 164.725 20.984C165.395 20.984 166.229 21.1048 166.57 21.2147V17.5577C166.207 17.4918 165.581 17.4479 165.142 17.4479C163.209 17.4479 161.595 18.5461 160.98 20.5008H160.804V17.6895H156.949V34.5577ZM169.211 34.5577H173.186V17.6895H169.211V34.5577ZM171.209 15.2954C172.472 15.2954 173.505 14.329 173.505 13.143C173.505 11.9459 172.472 10.9795 171.209 10.9795C169.936 10.9795 168.903 11.9459 168.903 13.143C168.903 14.329 169.936 15.2954 171.209 15.2954ZM182.128 34.8981C184.775 34.8981 186.356 33.6571 187.081 32.2405H187.213V34.5577H191.035V23.2683C191.035 18.8096 187.4 17.4698 184.182 17.4698C180.635 17.4698 177.911 19.0512 177.033 22.1262L180.745 22.6533C181.14 21.5002 182.26 20.5118 184.204 20.5118C186.049 20.5118 187.059 21.4563 187.059 23.1145V23.1804C187.059 24.3225 185.862 24.3774 182.886 24.6959C179.613 25.0473 176.484 26.0247 176.484 29.8245C176.484 33.141 178.911 34.8981 182.128 34.8981ZM183.161 31.9769C181.502 31.9769 180.316 31.2192 180.316 29.7586C180.316 28.2321 181.645 27.5951 183.424 27.3426C184.467 27.1998 186.554 26.9362 187.07 26.5189V28.5066C187.07 30.3845 185.555 31.9769 183.161 31.9769ZM199.007 12.0667H195.032V34.5577H199.007V12.0667ZM203.095 34.5577H207.071V17.6895H203.095V34.5577ZM205.094 15.2954C206.357 15.2954 207.389 14.329 207.389 13.143C207.389 11.9459 206.357 10.9795 205.094 10.9795C203.82 10.9795 202.788 11.9459 202.788 13.143C202.788 14.329 203.82 15.2954 205.094 15.2954ZM210.939 34.5577H224.787V31.2631H216.222V31.1203L224.502 20.402V17.6895H211.225V20.984H219.637V21.1268L210.939 32.0318V34.5577ZM235.509 34.8871C239.44 34.8871 242.142 32.9653 242.844 30.0331L239.133 29.6158C238.594 31.0435 237.277 31.7902 235.563 31.7902C232.994 31.7902 231.291 30.099 231.259 27.2108H243.009V25.9918C243.009 20.0725 239.451 17.4698 235.3 17.4698C230.468 17.4698 227.316 21.017 227.316 26.2224C227.316 31.5157 230.424 34.8871 235.509 34.8871ZM231.269 24.5312C231.39 22.3787 232.983 20.5667 235.355 20.5667C237.639 20.5667 239.176 22.236 239.198 24.5312H231.269Z"
			fill="#472F85" />
		<path opacity="0.7"
			d="M51.691 0.378796V6.6055L51.681 43.4703H41.6797V4.0044L44.8143 0.812497C44.9467 0.669397 45.1084 0.556498 45.2883 0.481698C45.4683 0.406798 45.6622 0.371696 45.857 0.378796H51.691Z"
			fill="#13D461" />
		<path opacity="0.7" fill-rule="evenodd" clip-rule="evenodd"
			d="M36.3939 29.4454C35.6882 28.5405 34.9844 27.6381 34.2936 26.9473C33.0157 25.6739 31.7468 24.3915 30.4789 23.1101C29.8462 22.4706 29.2138 21.8314 28.5806 21.1937V16.7583L28.5826 16.7493C28.577 16.5545 28.6134 16.3609 28.6894 16.1815C28.74 16.0623 28.8072 15.9512 28.8889 15.8515L38.5851 6.5627V7.0586V30.7988C38.5845 30.8322 38.5857 30.9478 38.5872 31.096C38.5908 31.4401 38.5963 31.96 38.5851 32.0368C37.861 31.3266 37.1265 30.3847 36.3939 29.4454Z"
			fill="#13D461" />
		<path d="M0.367699 11.8863V25.8778L18.0211 43.4703H32.0599L0.367699 11.8863Z" fill="#472F85" />
		<path d="M0.367699 43.4703H13.3438L0.367699 30.5416V43.4703Z" fill="#472F85" />
		<path
			d="M36.7927 43.4703H50.694L8.7684 0.8128C8.636 0.6699 8.4744 0.557098 8.2945 0.482398C8.1146 0.407598 7.9207 0.372599 7.726 0.379599H0.381699V6.5999L36.7927 43.4703Z"
			fill="#472F85" />
	</g>
	<defs>
		<clipPath id="Frame_clip0-13-27">
			<rect width="243" height="43" fill="white" />
		</clipPath>
	</defs>
</svg>
