<svg xmlns="http://www.w3.org/2000/svg" viewBox="0 0 337.71 140.39"><path d="M.2 0h337.51l-.2 140.39H0z" style="fill:none"/><path d="M140.35 48.56v43.2h-7.5V57.9h-.12l-13.41 33.86h-5L100.61 57.9h-.09v33.86h-6.93v-43.2h10.76l12.41 32h.18l13.1-32zm6.27 3.29c-.01-1.14.47-2.23 1.31-3 .84-.8 1.96-1.24 3.12-1.22 1.19-.03 2.34.42 3.19 1.25.83.77 1.29 1.87 1.27 3 .03 1.14-.45 2.24-1.3 3-.86.8-1.99 1.23-3.16 1.2-1.17.03-2.31-.41-3.15-1.22a3.95 3.95 0 0 1-1.28-3.01m8 8.94v31h-7.29v-31zm22.12 25.67c1.23-.03 2.44-.28 3.58-.75 1.29-.5 2.51-1.17 3.62-2v6.78c-1.25.69-2.6 1.2-4 1.5-1.59.36-3.23.54-4.86.52-8.13.33-14.99-5.99-15.32-14.11q-.03-.615 0-1.23c-.17-4.51 1.39-8.91 4.36-12.3 2.92-3.23 7-4.84 12.39-4.84 1.4 0 2.79.18 4.14.53 1.16.26 2.29.66 3.35 1.2v7c-1.06-.79-2.22-1.43-3.45-1.92-1.15-.44-2.37-.67-3.6-.67-2.63-.12-5.18.9-7 2.8-1.84 2.07-2.8 4.79-2.65 7.56 0 3.13.84 5.57 2.54 7.32a9.18 9.18 0 0 0 6.94 2.61zm28-26.18c.53 0 1.05.04 1.57.12q.6.09 1.17.3v7.38c-.51-.34-1.08-.61-1.67-.79-.86-.27-1.76-.4-2.66-.38-1.79 0-3.48.83-4.55 2.26-1.23 1.51-1.85 3.85-1.85 7V91.8h-7.29v-31h7.29v4.88h.12c.58-1.6 1.63-2.99 3-4a8.15 8.15 0 0 1 4.86-1.4zm3.14 16.45c0-5.12 1.45-9.18 4.34-12.17s6.91-4.49 12.05-4.49q7.26 0 11.34 4.32c2.72 2.88 4.08 6.77 4.08 11.68s-1.45 9.02-4.34 12-6.83 4.47-11.81 4.46c-4.8 0-8.61-1.41-11.43-4.24s-4.23-6.68-4.24-11.56Zm7.59-.24c0 3.23.73 5.7 2.2 7.41a7.83 7.83 0 0 0 6.3 2.56c2.31.15 4.55-.8 6.05-2.56 1.39-1.71 2.08-4.24 2.08-7.59s-.72-5.86-2.15-7.55a7.5 7.5 0 0 0-6-2.54c-2.38-.13-4.68.85-6.23 2.66-1.51 1.78-2.26 4.32-2.26 7.61Zm35.07-7.56c-.05.92.32 1.82 1 2.45 1.35.96 2.83 1.72 4.4 2.25 2.34.78 4.44 2.13 6.13 3.93a8.18 8.18 0 0 1 1.76 5.29 8.52 8.52 0 0 1-3.36 7c-2.24 1.76-5.26 2.65-9.08 2.65-1.43-.02-2.86-.17-4.26-.47-1.37-.25-2.71-.65-4-1.19v-7.17c1.32.92 2.75 1.66 4.27 2.2 1.33.5 2.74.78 4.16.81 1.26.08 2.51-.16 3.65-.69.8-.49 1.25-1.39 1.17-2.32 0-.99-.45-1.93-1.22-2.55a18 18 0 0 0-4.62-2.39c-2.19-.78-4.16-2.09-5.73-3.8a8.34 8.34 0 0 1-1.68-5.36 8.45 8.45 0 0 1 3.32-6.88c2.48-1.88 5.53-2.84 8.64-2.7 1.22.01 2.44.13 3.64.36 1.15.19 2.28.5 3.37.94v6.93c-1.05-.69-2.18-1.25-3.37-1.66-1.23-.45-2.52-.68-3.83-.69a5.57 5.57 0 0 0-3.23.81c-.75.5-1.18 1.35-1.14 2.25Zm16.41 7.8c0-5.12 1.45-9.18 4.34-12.17s6.91-4.49 12.05-4.49q7.26 0 11.34 4.32c2.72 2.88 4.08 6.77 4.09 11.68 0 5.02-1.45 9.02-4.34 12s-6.83 4.47-11.81 4.46c-4.8 0-8.61-1.41-11.43-4.24s-4.24-6.68-4.25-11.56zm7.6-.24q0 4.845 2.19 7.41a7.83 7.83 0 0 0 6.3 2.56c2.31.15 4.56-.8 6.06-2.56q2.07-2.565 2.07-7.59c0-5.025-.71-5.85-2.15-7.55a7.5 7.5 0 0 0-6-2.54c-2.37-.13-4.67.86-6.22 2.66-1.53 1.78-2.26 4.29-2.26 7.61zm48.4-9.73h-10.87v25h-7.38v-25h-5.18v-6h5.18v-4.3c-.11-2.99 1.05-5.9 3.18-8 2.18-2.09 5.11-3.2 8.12-3.09.79 0 1.57.04 2.35.14.62.07 1.22.21 1.81.4v6.26c-.41-.21-.83-.38-1.27-.51-.67-.21-1.38-.31-2.08-.3-1.33-.08-2.63.44-3.52 1.43a6.3 6.3 0 0 0-1.24 4.23v3.73h10.86v-7l7.32-2.22v9.18h7.38v6h-7.38V81.2c-.14 1.41.22 2.82 1 4 .87.85 2.06 1.27 3.27 1.17.52-.02 1.03-.12 1.52-.3a7.5 7.5 0 0 0 1.55-.72v6c-.73.35-1.5.59-2.3.72-1.05.23-2.11.34-3.18.34-3.07 0-5.38-.82-6.91-2.46s-2.31-4.1-2.31-7.39z" style="fill:#666"/><path d="M0 34.17h34.22v34.22H0z" style="fill:#ff3e00"/><path d="M37.78 34.17H72v34.22H37.78z" style="fill:#6bbf00"/><path d="M0 71.95h34.22v34.22H0z" style="fill:#00a6f7"/><path d="M37.78 71.95H72v34.22H37.78z" style="fill:#ffb700"/></svg>