<svg width="600" height="600" viewBox="0 0 600 600" fill="none" xmlns="http://www.w3.org/2000/svg">
<path fill-rule="evenodd" clip-rule="evenodd" d="M0 103.448C0 46.3154 46.3154 0 103.448 0H496.552C553.685 0 600 46.3154 600 103.448V437.782C600 496.889 525.203 522.542 488.927 475.876L375.517 329.987V506.897C375.517 558.316 333.833 600 282.414 600H103.448C46.3154 600 0 553.685 0 496.552V103.448ZM103.448 82.7586C92.0217 82.7586 82.7586 92.0217 82.7586 103.448V496.552C82.7586 507.978 92.0217 517.241 103.448 517.241H285.517C291.23 517.241 292.759 512.61 292.759 506.897V269.662C292.759 210.555 367.555 184.902 403.832 231.567L517.241 377.456V103.448C517.241 92.0217 518.323 82.7586 506.897 82.7586H103.448Z" fill="#00E0D9"/>
<path fill-rule="evenodd" clip-rule="evenodd" d="M0 103.448C0 46.3154 46.3154 0 103.448 0H496.552C553.685 0 600 46.3154 600 103.448V437.782C600 496.889 525.203 522.542 488.927 475.876L375.517 329.987V506.897C375.517 558.316 333.833 600 282.414 600H103.448C46.3154 600 0 553.685 0 496.552V103.448ZM103.448 82.7586C92.0217 82.7586 82.7586 92.0217 82.7586 103.448V496.552C82.7586 507.978 92.0217 517.241 103.448 517.241H285.517C291.23 517.241 292.759 512.61 292.759 506.897V269.662C292.759 210.555 367.555 184.902 403.832 231.567L517.241 377.456V103.448C517.241 92.0217 518.323 82.7586 506.897 82.7586H103.448Z" fill="url(#paint0_linear_5660_8315)"/>
<path fill-rule="evenodd" clip-rule="evenodd" d="M0 103.448C0 46.3154 46.3154 0 103.448 0H496.552C553.685 0 600 46.3154 600 103.448V437.782C600 496.889 525.203 522.542 488.927 475.876L375.517 329.987V506.897C375.517 558.316 333.833 600 282.414 600H103.448C46.3154 600 0 553.685 0 496.552V103.448ZM103.448 82.7586C92.0217 82.7586 82.7586 92.0217 82.7586 103.448V496.552C82.7586 507.978 92.0217 517.241 103.448 517.241H285.517C291.23 517.241 292.759 512.61 292.759 506.897V269.662C292.759 210.555 367.555 184.902 403.832 231.567L517.241 377.456V103.448C517.241 92.0217 518.323 82.7586 506.897 82.7586H103.448Z" fill="url(#paint1_linear_5660_8315)" fill-opacity="0.4"/>
<path d="M496.55 0C553.683 0 599.998 46.3154 599.998 103.448V437.782C599.998 496.889 525.202 522.542 488.925 475.876L375.516 329.987V506.897C375.516 558.316 333.832 600 282.412 600C288.125 600 292.757 595.368 292.757 589.655V269.662C292.757 210.555 367.553 184.902 403.83 231.567L517.24 377.456V20.6897C517.24 9.26307 507.977 0 496.55 0Z" fill="#63F655"/>
<defs>
<linearGradient id="paint0_linear_5660_8315" x1="600" y1="600" x2="72.414" y2="0.000200554" gradientUnits="userSpaceOnUse">
<stop stop-color="#62F755"/>
<stop offset="1" stop-color="#8FF986" stop-opacity="0"/>
</linearGradient>
<linearGradient id="paint1_linear_5660_8315" x1="600" y1="600" x2="243.621" y2="461.379" gradientUnits="userSpaceOnUse">
<stop stop-opacity="0.9"/>
<stop offset="1" stop-color="#1A1A1A" stop-opacity="0"/>
</linearGradient>
</defs>
</svg>
