<svg id="Ebene_1" data-name="Ebene 1" xmlns="http://www.w3.org/2000/svg" xmlns:xlink="http://www.w3.org/1999/xlink" viewBox="0 0 2782.22 555.05"><defs><style>.cls-1{fill:none;}.cls-2,.cls-5{fill:#41404a;}.cls-2{stroke:#41404a;stroke-miterlimit:10;stroke-width:5.13px;}.cls-3{clip-path:url(#clip-path);}.cls-4{fill:#4ec1ec;}</style><clipPath id="clip-path"><rect class="cls-1" x="69.29" y="36.2" width="454.72" height="454.72"/></clipPath></defs><path class="cls-2" d="M831.7,204.85c-11.36-53-55.52-62.67-84.54-62.67-54.68,0-98.84,40.38-98.84,119.87,0,71.08,25.23,125.76,100.1,125.76,26.5,0,72.34-12.62,86.22-82.86h39.54c-16.83,114-109.36,119-132.07,119-68.56,0-135.85-44.59-135.85-160.67,0-92.95,53-157.3,140.9-157.3,77.81,0,118.18,48.37,124.07,98.84Z"/><path class="cls-2" d="M1018.43,416h-40.8V294.43L863.65,114h47.53l86.64,145.11L1084.46,114h48l-114,180.43Z"/><path class="cls-2" d="M1152.59,114H1285.5c56.36,0,85.38,34.91,85.38,76.13,0,19.77-7.15,47.53-40.38,63.09,19.77,8,54.68,21.87,54.68,73.6,0,48.37-35.75,89.17-102.62,89.17h-130Zm40.8,127.86H1267c39.11,0,63.08-11.78,63.08-48.79,0-28.18-17.24-44.16-62.66-44.16h-74Zm0,139.22h87.06c42.48,0,63.93-21.45,63.93-55.1,0-42.48-37.43-50.89-70.66-50.89h-80.33Z"/><path class="cls-2" d="M1644.26,416H1421.35V114h220v36.17H1462.14V242.7h165.3v36.17h-165.3V379.81h182.12Z"/><path class="cls-2" d="M1726.69,416h-40.8V114h139.64c49.63,0,99.26,17.25,99.26,81.18,0,44.58-22.71,61-42.06,72.34,17.24,7.15,34.49,14.72,36.17,56.78l2.52,54.67c.42,16.83,2.53,23.13,15.14,30.29V416h-50c-5.89-18.51-7.15-64.35-7.15-75.71,0-24.82-5-53.84-53.83-53.84h-98.84Zm0-164.46h94.63c29.86,0,61.41-7.57,61.41-52.15,0-46.68-34.07-50.47-54.26-50.47H1726.69Z"/><path class="cls-2" d="M1929,114h245.21v36.17H2072V416h-40.8V150.17H1929Z"/><path class="cls-2" d="M2422.33,416H2199.42V114h220v36.17H2240.22V242.7h165.29v36.17H2240.22V379.81h182.11Z"/><path class="cls-2" d="M2670.89,204.85c-11.35-53-55.51-62.67-84.53-62.67-54.68,0-98.84,40.38-98.84,119.87,0,71.08,25.23,125.76,100.1,125.76,26.49,0,72.34-12.62,86.22-82.86h39.54c-16.83,114-109.36,119-132.07,119-68.56,0-135.85-44.59-135.85-160.67,0-92.95,53-157.3,140.9-157.3,77.81,0,118.18,48.37,124.07,98.84Z"/><g class="cls-3"><path class="cls-4" d="M265.26,135.62a42.49,42.49,0,1,1-42.48-42.48,42.48,42.48,0,0,1,42.48,42.48"/><path class="cls-4" d="M265.26,391.5A42.49,42.49,0,1,1,222.78,349a42.48,42.48,0,0,1,42.48,42.48"/><path class="cls-4" d="M486.86,263.56a42.49,42.49,0,1,1-42.48-42.48,42.48,42.48,0,0,1,42.48,42.48"/><path class="cls-5" d="M356,316.79a103.54,103.54,0,0,1,0-106.46c20.71-34.81,39.74-33.44,51.31-53.47a42.48,42.48,0,1,0-73.58-42.48c-11.56,20-.87,35.83-20.65,71.15-17.73,31.67-50.91,53.25-92.2,53.25-38.69,0-48.83-17.7-72-17.7a42.48,42.48,0,1,0,0,85c23.13,0,31.46-17.16,72-17.69,41.35,0,74.58,21.53,92.21,53.24,19.68,35.38,9.09,51.13,20.65,71.15a42.48,42.48,0,0,0,73.58-42.47c-11.57-20-30.6-18.67-51.31-53.48"/></g></svg>