<svg xmlns="http://www.w3.org/2000/svg" width="2500" height="2500" viewBox="0 0 192.756 192.756"><g fill-rule="evenodd" clip-rule="evenodd"><path fill="#fff" d="M0 0h192.756v192.756H0V0z"/><path d="M15.857 144.742c.289 10.1 7.792 14.574 17.171 14.574 8.081 0 16.161-3.607 16.161-12.844 0-4.184-2.597-8.801-7.936-10.389-2.165-.578-11.111-2.887-11.833-3.176-2.886-.721-4.762-2.309-4.762-5.193 0-4.186 4.185-5.34 7.503-5.34 4.906 0 8.369 2.021 8.802 7.215h7.07c0-8.514-7.07-12.986-15.584-12.986-7.359 0-15.007 3.752-15.007 11.977 0 4.186 2.02 8.514 9.091 10.389 5.627 1.443 9.235 2.311 12.121 3.32 1.731.576 3.463 1.875 3.463 5.051 0 3.029-2.453 6.203-8.658 6.203-5.771 0-10.389-2.453-10.389-8.801h-7.213zM88.727 128.725h-6.493v17.172c0 4.617-1.875 8.08-7.215 8.08-3.607 0-5.771-1.875-5.771-7.07v-18.182h-6.494v18.902c0 7.648 3.319 11.545 11.111 11.545 3.175 0 6.782-1.877 8.369-4.906h.145v4.039h6.349v-29.58h-.001zM102.291 144.742c.145 10.1 7.793 14.574 17.027 14.574 8.225 0 16.307-3.607 16.307-12.844 0-4.184-2.598-8.801-7.938-10.389-2.164-.578-11.254-2.887-11.832-3.176-2.887-.721-4.906-2.309-4.906-5.193 0-4.186 4.186-5.34 7.504-5.34 4.906 0 8.514 2.021 8.801 7.215h7.217c0-8.514-7.217-12.986-15.73-12.986-7.357 0-14.861 3.752-14.861 11.977 0 4.186 2.02 8.514 8.945 10.389 5.629 1.443 9.381 2.311 12.266 3.32 1.588.576 3.32 1.875 3.32 5.051 0 3.029-2.311 6.203-8.658 6.203-5.629 0-10.246-2.453-10.246-8.801h-7.216zM150.055 158.305h29.869v-6.061H157.27v-11.976h20.49v-5.916h-20.49v-10.678h22.22v-6.205h-29.435v40.836z" fill="#0c0e0f"/><path d="M9.797 100.299c.144.287.144.432.144.576 3.175 8.514 9.235 11.977 19.192 11.4 6.782-.723 9.668-4.762 8.225-11.832l-8.658-.145c-.144 2.309-1.299 4.328-4.04 4.617h-.289c-3.319-.434-5.483-2.164-6.638-4.473l-7.936-.143zm11.399 0c.866 1.01 1.876 1.586 3.319 1.73.866-.145 1.299-.865 1.299-1.586l-4.618-.144zm35.209 0c0 1.441 0 3.752 3.175 3.895 4.185 0 4.185-2.02 4.473-3.75l-7.648-.145zm17.027 0c0 2.885.577 3.752 3.03 4.184 3.174.289 3.896-1.73 4.04-2.598.145-.576.145-1.01.289-1.586h-7.359zm46.607 0c.434 1.73.434 4.473 4.475 4.184 2.453-.289 2.598-2.453 2.309-4.184h-6.784zm16.307 0c1.299 3.174 3.029 4.039 5.338 3.463 1.443-.578 2.021-1.154 1.732-3.463h-7.07z" fill="#9dc14e"/><path d="M8.787 87.888c-.577 4.329-.288 8.514 1.01 12.411h7.937c-1.154-2.309-1.298-5.196-.577-7.937l.144-.289c.866-1.587 1.876-3.175 3.175-4.185H8.787zm46.608 0l.866 12.122c0 .145 0 .289.144.289h7.647v-.145c.145-8.37.145-9.524.433-12.266h-9.09zm18.181 0c.145.578 0 1.299-.144 2.021v7.214c0 1.299-.145 2.309 0 3.32l7.359-.145c.722-4.474.433-6.206 1.154-10.102.145-.866.145-1.587.289-2.309h-8.658v.001zm42.858 0l3.318 11.977c.145.145.145.289.287.434h6.783c0-.578-.145-1.012-.145-1.443-.578-2.886-1.01-7.071-1.443-10.534-.145-.145-.145-.289-.145-.434h-8.655zm16.015 0l2.887 9.668s.289 1.01 1.01 2.598v.145h7.07c0-.723-.289-1.877-.721-3.176 0 0-2.309-5.916-1.012-9.235h-9.234zM25.814 100.299c.145-.723 0-1.588-.289-2.166-1.731.289-2.597-2.308-.866-2.885 2.741-.866 4.329 2.165 4.04 5.196l8.658-.145c-.144-.578-.433-1.299-.577-2.021-2.598-5.194-5.483-8.225-8.658-9.09l-1.731.433c-2.742.577-5.05.866-6.493 3.607-.722 3.03-.289 5.483 1.298 7.071h4.618z" fill="#9dc14e"/><path d="M15.136 71.15c-3.463 5.483-5.628 11.255-6.35 16.738h11.688c.433-.433 1.01-.721 1.587-.866 1.299-.577 2.598-.866 4.041-1.154 1.298-2.886 4.618-5.628 9.812-7.792 9.668-2.453 17.893-.577 19.48 8.514v1.298h9.09c.144-.433.144-.721.144-1.154.866-4.329 8.803-5.627 8.947 1.154h8.658c.578-3.318 2.453-4.617 10.822-3.318 5.627 1.587 9.235.866 16.883.144 5.482-1.154 5.195.144 6.35 2.886l.145.289h8.656c-.721-3.896 2.598-10.966 7.215-.577l.145.577h9.234c.434-1.442 1.588-2.453 3.896-2.309 1.299-.289 2.887-.433 3.176-1.443-3.896-1.731-6.061-3.463-13.709-9.524-1.443-1.154.289-3.463 1.732-2.309 9.668 7.504 12.119 9.957 20.777 12.121 10.102.722 19.77-4.04 25.252-13.275h-4.906c-3.607 1.01-7.502 1.876-12.264 2.02-2.598-.144-4.906-.577-7.072-1.154a39.21 39.21 0 0 0-2.309-.866H15.136z" fill="#9dc14e"/><path d="M156.258 71.15c-2.596-1.01-5.627-2.453-8.514-2.886-2.309-.289-1.586-3.03-.143-3.03 5.627.866 12.408 5.195 18.037 5.339 7.936-.144 13.707-2.597 18.613-4.617-2.742-9.524-14.574-19.913-24.531-17.027-15.295-9.235-18.469-9.668-36.939-13.708-18.037-3.896-43.578-.722-57.863 3.03-13.131 4.473-23.232 7.07-40.547 21.933-3.752 3.463-6.782 7.215-9.235 10.967h141.122v-.001zm26.551 0c.289-.577.723-1.299 1.01-2.02-1.875.721-3.75 1.443-5.916 2.02h4.906zm-18.038-20.057c4.617 0 9.236 3.463 9.236 8.081 0 4.617-4.619 7.792-9.236 7.792s-7.646-3.896-7.646-8.514c0-4.473 3.029-7.359 7.646-7.359zm.723 2.02c-3.463 0-6.205 2.742-6.205 6.061 0 3.175 2.742 5.916 6.205 5.916s6.205-2.741 6.205-5.916c0-3.32-2.742-6.061-6.205-6.061zm.432 2.02c2.309 0 3.32 1.587 3.32 3.896 0 2.165-1.154 3.752-3.465 3.752-2.164 0-4.473-1.299-4.473-3.607.001-2.165 2.454-4.041 4.618-4.041zm-.576 2.309c-1.01 0-1.732.866-1.732 1.731 0 1.01.723 1.876 1.732 1.876s1.875-.866 1.875-1.876c0-.865-.866-1.731-1.875-1.731z" fill="#9dc14e"/><path d="M41.975 106.504h137.371v4.473H40.388s1.587-1.588 1.587-4.473z" fill="#0c0e0f"/></g></svg>